%TF.GenerationSoftware,KiCad,Pcbnew,9.0.0*%
%TF.CreationDate,2025-03-02T11:48:58+01:00*%
%TF.ProjectId,DMH_Multiverter_PCB,444d485f-4d75-46c7-9469-766572746572,1*%
%TF.SameCoordinates,Original*%
%TF.FileFunction,Copper,L2,Bot*%
%TF.FilePolarity,Positive*%
%FSLAX46Y46*%
G04 Gerber Fmt 4.6, Leading zero omitted, Abs format (unit mm)*
G04 Created by KiCad (PCBNEW 9.0.0) date 2025-03-02 11:48:58*
%MOMM*%
%LPD*%
G01*
G04 APERTURE LIST*
G04 Aperture macros list*
%AMRoundRect*
0 Rectangle with rounded corners*
0 $1 Rounding radius*
0 $2 $3 $4 $5 $6 $7 $8 $9 X,Y pos of 4 corners*
0 Add a 4 corners polygon primitive as box body*
4,1,4,$2,$3,$4,$5,$6,$7,$8,$9,$2,$3,0*
0 Add four circle primitives for the rounded corners*
1,1,$1+$1,$2,$3*
1,1,$1+$1,$4,$5*
1,1,$1+$1,$6,$7*
1,1,$1+$1,$8,$9*
0 Add four rect primitives between the rounded corners*
20,1,$1+$1,$2,$3,$4,$5,0*
20,1,$1+$1,$4,$5,$6,$7,0*
20,1,$1+$1,$6,$7,$8,$9,0*
20,1,$1+$1,$8,$9,$2,$3,0*%
G04 Aperture macros list end*
%TA.AperFunction,ComponentPad*%
%ADD10O,4.000000X4.200000*%
%TD*%
%TA.AperFunction,ComponentPad*%
%ADD11C,1.800000*%
%TD*%
%TA.AperFunction,ComponentPad*%
%ADD12R,1.800000X1.800000*%
%TD*%
%TA.AperFunction,ComponentPad*%
%ADD13R,1.700000X1.700000*%
%TD*%
%TA.AperFunction,ComponentPad*%
%ADD14C,1.600000*%
%TD*%
%TA.AperFunction,ComponentPad*%
%ADD15O,1.600000X1.600000*%
%TD*%
%TA.AperFunction,ComponentPad*%
%ADD16RoundRect,0.250000X0.550000X0.550000X-0.550000X0.550000X-0.550000X-0.550000X0.550000X-0.550000X0*%
%TD*%
%TA.AperFunction,ComponentPad*%
%ADD17R,2.200000X2.200000*%
%TD*%
%TA.AperFunction,ComponentPad*%
%ADD18O,2.200000X2.200000*%
%TD*%
%TA.AperFunction,ComponentPad*%
%ADD19O,1.700000X1.700000*%
%TD*%
%TA.AperFunction,ComponentPad*%
%ADD20C,1.440000*%
%TD*%
%TA.AperFunction,ComponentPad*%
%ADD21R,1.600000X1.600000*%
%TD*%
%TA.AperFunction,ComponentPad*%
%ADD22RoundRect,0.250000X0.600000X-0.600000X0.600000X0.600000X-0.600000X0.600000X-0.600000X-0.600000X0*%
%TD*%
%TA.AperFunction,ComponentPad*%
%ADD23C,1.700000*%
%TD*%
%TA.AperFunction,ComponentPad*%
%ADD24RoundRect,0.250000X-0.600000X-0.600000X0.600000X-0.600000X0.600000X0.600000X-0.600000X0.600000X0*%
%TD*%
%TA.AperFunction,Conductor*%
%ADD25C,1.000000*%
%TD*%
%TA.AperFunction,Conductor*%
%ADD26C,0.200000*%
%TD*%
G04 APERTURE END LIST*
D10*
%TO.P,RV1,*%
%TO.N,*%
X77200000Y-58750000D03*
D11*
X86750000Y-69750000D03*
D10*
X88800000Y-58750000D03*
D12*
%TO.P,RV1,1,1*%
%TO.N,GND*%
X79250000Y-69750000D03*
D11*
%TO.P,RV1,2,2*%
%TO.N,Net-(U1A-+)*%
X81750000Y-69750000D03*
%TO.P,RV1,3,3*%
%TO.N,/Core Circuit/Att A Input*%
X84250000Y-69750000D03*
%TD*%
D13*
%TO.P,J0,1,Pin_1*%
%TO.N,GND*%
X95750000Y-81250000D03*
%TD*%
D10*
%TO.P,RV2,*%
%TO.N,*%
X77200000Y-97000000D03*
D11*
X86750000Y-108000000D03*
D10*
X88800000Y-97000000D03*
D12*
%TO.P,RV2,1,1*%
%TO.N,GND*%
X79250000Y-108000000D03*
D11*
%TO.P,RV2,2,2*%
%TO.N,Net-(U1B-+)*%
X81750000Y-108000000D03*
%TO.P,RV2,3,3*%
%TO.N,/Core Circuit/Att B Input*%
X84250000Y-108000000D03*
%TD*%
D14*
%TO.P,R5,1*%
%TO.N,Net-(D3-K)*%
X72500000Y-114810000D03*
D15*
%TO.P,R5,2*%
%TO.N,+12V*%
X72500000Y-107190000D03*
%TD*%
D14*
%TO.P,C6,1*%
%TO.N,GND*%
X77500000Y-86500000D03*
%TO.P,C6,2*%
%TO.N,-12V*%
X82500000Y-86500000D03*
%TD*%
D16*
%TO.P,U1,1*%
%TO.N,Net-(R2-Pad1)*%
X83800000Y-75950000D03*
D14*
%TO.P,U1,2,-*%
%TO.N,Net-(U1A--)*%
X83800000Y-78490000D03*
%TO.P,U1,3,+*%
%TO.N,Net-(U1A-+)*%
X83800000Y-81030000D03*
%TO.P,U1,4,V-*%
%TO.N,-12V*%
X83800000Y-83570000D03*
%TO.P,U1,5,+*%
%TO.N,Net-(U1B-+)*%
X76180000Y-83570000D03*
%TO.P,U1,6,-*%
%TO.N,Net-(U1B--)*%
X76180000Y-81030000D03*
%TO.P,U1,7*%
%TO.N,Net-(R4-Pad1)*%
X76180000Y-78490000D03*
%TO.P,U1,8,V+*%
%TO.N,+12V*%
X76180000Y-75950000D03*
%TD*%
%TO.P,C4,1*%
%TO.N,GND*%
X92250000Y-62000000D03*
%TO.P,C4,2*%
%TO.N,-12V*%
X92250000Y-67000000D03*
%TD*%
%TO.P,R2,1*%
%TO.N,Net-(R2-Pad1)*%
X97000000Y-69440000D03*
D15*
%TO.P,R2,2*%
%TO.N,/Core Circuit/Att A Output*%
X97000000Y-77060000D03*
%TD*%
D17*
%TO.P,D2,1,K*%
%TO.N,Net-(D2-K)*%
X97000000Y-54420000D03*
D18*
%TO.P,D2,2,A*%
%TO.N,-12V*%
X97000000Y-64580000D03*
%TD*%
D13*
%TO.P,J60,1,Pin_1*%
%TO.N,Net-(D3-K)*%
X89325000Y-115475000D03*
D19*
%TO.P,J60,2,Pin_2*%
%TO.N,Net-(J200-Pin_1)*%
X86785000Y-115475000D03*
%TO.P,J60,3,Pin_3*%
%TO.N,Net-(D3-K)*%
X84245000Y-115475000D03*
%TO.P,J60,4,Pin_4*%
%TO.N,Net-(J200-Pin_2)*%
X81705000Y-115475000D03*
%TO.P,J60,5,Pin_5*%
%TO.N,GND*%
X79165000Y-115475000D03*
%TO.P,J60,6,Pin_6*%
X76625000Y-115475000D03*
%TD*%
D20*
%TO.P,RV3,1,1*%
%TO.N,Net-(U1A--)*%
X89250000Y-78800000D03*
%TO.P,RV3,2,2*%
%TO.N,Net-(R2-Pad1)*%
X89250000Y-76260000D03*
%TO.P,RV3,3,3*%
X89250000Y-73720000D03*
%TD*%
D14*
%TO.P,R1,1*%
%TO.N,/Core Circuit/Att A Input*%
X93750000Y-77060000D03*
D15*
%TO.P,R1,2*%
%TO.N,Net-(U1A--)*%
X93750000Y-69440000D03*
%TD*%
D13*
%TO.P,J50,1,Pin_1*%
%TO.N,/Core Circuit/Att A Input*%
X68975000Y-71175000D03*
D19*
%TO.P,J50,2,Pin_2*%
%TO.N,/Core Circuit/Att A Output*%
X68975000Y-73715000D03*
%TO.P,J50,3,Pin_3*%
%TO.N,/Core Circuit/Att B Input*%
X68975000Y-76255000D03*
%TO.P,J50,4,Pin_4*%
%TO.N,/Core Circuit/Att B Output*%
X68975000Y-78795000D03*
%TO.P,J50,5,Pin_5*%
%TO.N,GND*%
X68975000Y-81335000D03*
%TO.P,J50,6,Pin_6*%
X68975000Y-83875000D03*
%TD*%
D17*
%TO.P,D1,1,K*%
%TO.N,+12V*%
X69750000Y-55080000D03*
D18*
%TO.P,D1,2,A*%
%TO.N,Net-(D1-A)*%
X69750000Y-44920000D03*
%TD*%
D20*
%TO.P,RV4,1,1*%
%TO.N,Net-(U1B--)*%
X89250000Y-89050000D03*
%TO.P,RV4,2,2*%
%TO.N,Net-(R4-Pad1)*%
X89250000Y-86510000D03*
%TO.P,RV4,3,3*%
X89250000Y-83970000D03*
%TD*%
D21*
%TO.P,C2,1*%
%TO.N,GND*%
X92500000Y-56455113D03*
D14*
%TO.P,C2,2*%
%TO.N,-12V*%
X92500000Y-54455113D03*
%TD*%
%TO.P,R4,1*%
%TO.N,Net-(R4-Pad1)*%
X97000000Y-85440000D03*
D15*
%TO.P,R4,2*%
%TO.N,/Core Circuit/Att B Output*%
X97000000Y-93060000D03*
%TD*%
D14*
%TO.P,R3,1*%
%TO.N,/Core Circuit/Att B Input*%
X93750000Y-93060000D03*
D15*
%TO.P,R3,2*%
%TO.N,Net-(U1B--)*%
X93750000Y-85440000D03*
%TD*%
D14*
%TO.P,C5,1*%
%TO.N,+12V*%
X77500000Y-73000000D03*
%TO.P,C5,2*%
%TO.N,GND*%
X82500000Y-73000000D03*
%TD*%
%TO.P,C3,1*%
%TO.N,+12V*%
X69750000Y-59750000D03*
%TO.P,C3,2*%
%TO.N,GND*%
X69750000Y-64750000D03*
%TD*%
D22*
%TO.P,J100,1a,Pin_1a*%
%TO.N,Net-(D2-K)*%
X93080000Y-49002500D03*
D23*
%TO.P,J100,1b,Pin_1b*%
X93080000Y-46462500D03*
%TO.P,J100,2a,Pin_2a*%
%TO.N,GND*%
X90540000Y-49002500D03*
%TO.P,J100,2b,Pin_2b*%
X90540000Y-46462500D03*
%TO.P,J100,3a,Pin_3a*%
X88000000Y-49002500D03*
%TO.P,J100,3b,Pin_3b*%
X88000000Y-46462500D03*
%TO.P,J100,4a,Pin_4a*%
X85460000Y-49002500D03*
%TO.P,J100,4b,Pin_4b*%
X85460000Y-46462500D03*
%TO.P,J100,5a,Pin_5a*%
%TO.N,Net-(D1-A)*%
X82920000Y-49002500D03*
%TO.P,J100,5b,Pin_5b*%
X82920000Y-46462500D03*
%TD*%
D21*
%TO.P,C1,1*%
%TO.N,+12V*%
X74750000Y-53044888D03*
D14*
%TO.P,C1,2*%
%TO.N,GND*%
X74750000Y-55044888D03*
%TD*%
D21*
%TO.P,D3,1,K*%
%TO.N,Net-(D3-K)*%
X69250000Y-114810000D03*
D15*
%TO.P,D3,2,A*%
%TO.N,GND*%
X69250000Y-107190000D03*
%TD*%
D24*
%TO.P,J200,1,Pin_1*%
%TO.N,Net-(J200-Pin_1)*%
X92747500Y-106790000D03*
D23*
%TO.P,J200,2,Pin_2*%
%TO.N,Net-(J200-Pin_2)*%
X92747500Y-104250000D03*
%TO.P,J200,3,Pin_3*%
%TO.N,GND*%
X92747500Y-101710000D03*
%TO.P,J200,4,Pin_4*%
%TO.N,Net-(J200-Pin_1)*%
X95287500Y-106790000D03*
%TO.P,J200,5,Pin_5*%
%TO.N,Net-(J200-Pin_2)*%
X95287500Y-104250000D03*
%TO.P,J200,6,Pin_6*%
%TO.N,GND*%
X95287500Y-101710000D03*
%TD*%
D25*
%TO.N,+12V*%
X69750000Y-55080000D02*
X71785112Y-53044888D01*
X73750000Y-63750000D02*
X73750000Y-69250000D01*
X69750000Y-59750000D02*
X69750000Y-55080000D01*
X73750000Y-69250000D02*
X77500000Y-73000000D01*
X76180000Y-75950000D02*
X72500000Y-79630000D01*
X77500000Y-73000000D02*
X77500000Y-74630000D01*
X71785112Y-53044888D02*
X74750000Y-53044888D01*
X69750000Y-59750000D02*
X73750000Y-63750000D01*
X77500000Y-74630000D02*
X76180000Y-75950000D01*
X72500000Y-79630000D02*
X72500000Y-107190000D01*
%TO.N,-12V*%
X82500000Y-86500000D02*
X82500000Y-84870000D01*
X82500000Y-84870000D02*
X83800000Y-83570000D01*
X90318679Y-67000000D02*
X92250000Y-67000000D01*
X82500000Y-86500000D02*
X84750000Y-86500000D01*
X88750000Y-71000000D02*
X88750000Y-68568679D01*
X97000000Y-64580000D02*
X96920000Y-64580000D01*
X93631370Y-54455113D02*
X97000000Y-57823743D01*
X86500000Y-73250000D02*
X88750000Y-71000000D01*
X92500000Y-54455113D02*
X93631370Y-54455113D01*
X84750000Y-86500000D02*
X86500000Y-84750000D01*
X97000000Y-57823743D02*
X97000000Y-64580000D01*
X96920000Y-64580000D02*
X94500000Y-67000000D01*
X86500000Y-84750000D02*
X86500000Y-73250000D01*
X94500000Y-67000000D02*
X92250000Y-67000000D01*
X88750000Y-68568679D02*
X90318679Y-67000000D01*
%TO.N,Net-(D1-A)*%
X71292500Y-46462500D02*
X69750000Y-44920000D01*
X82920000Y-46462500D02*
X71292500Y-46462500D01*
X82920000Y-46462500D02*
X82920000Y-49002500D01*
%TO.N,Net-(D2-K)*%
X93080000Y-49002500D02*
X93080000Y-50500000D01*
X93080000Y-50500000D02*
X97000000Y-54420000D01*
X93080000Y-49002500D02*
X93080000Y-46462500D01*
D26*
%TO.N,Net-(D3-K)*%
X72500000Y-114810000D02*
X74590000Y-116900000D01*
X87900000Y-116900000D02*
X89325000Y-115475000D01*
X82820000Y-116900000D02*
X84245000Y-115475000D01*
X69250000Y-114810000D02*
X72500000Y-114810000D01*
X84245000Y-115475000D02*
X85670000Y-116900000D01*
X85670000Y-116900000D02*
X87900000Y-116900000D01*
X74590000Y-116900000D02*
X82820000Y-116900000D01*
%TO.N,Net-(J200-Pin_2)*%
X92747500Y-104250000D02*
X91250000Y-105747500D01*
X91250000Y-105747500D02*
X91250000Y-107500000D01*
X82855000Y-114325000D02*
X81705000Y-115475000D01*
X84425000Y-114325000D02*
X82855000Y-114325000D01*
X95287500Y-104250000D02*
X92747500Y-104250000D01*
X91250000Y-107500000D02*
X84425000Y-114325000D01*
%TO.N,Net-(U1A--)*%
X91810000Y-69440000D02*
X93750000Y-69440000D01*
X89250000Y-78800000D02*
X87500000Y-77050000D01*
X87500000Y-77050000D02*
X87500000Y-73750000D01*
X87500000Y-73750000D02*
X91810000Y-69440000D01*
%TO.N,Net-(R2-Pad1)*%
X89250000Y-76260000D02*
X89250000Y-73720000D01*
X92720000Y-73720000D02*
X97000000Y-69440000D01*
X89250000Y-73720000D02*
X92720000Y-73720000D01*
%TO.N,Net-(R4-Pad1)*%
X89250000Y-83970000D02*
X89250000Y-86510000D01*
%TO.N,Net-(U1A-+)*%
X81750000Y-69750000D02*
X85500000Y-73500000D01*
X85500000Y-79330000D02*
X83800000Y-81030000D01*
X85500000Y-73500000D02*
X85500000Y-79330000D01*
%TO.N,Net-(U1B-+)*%
X81750000Y-89140000D02*
X81750000Y-108000000D01*
X76180000Y-83570000D02*
X81750000Y-89140000D01*
%TO.N,Net-(J200-Pin_1)*%
X95287500Y-106790000D02*
X92747500Y-106790000D01*
X92710000Y-106790000D02*
X86785000Y-112715000D01*
X86785000Y-112715000D02*
X86785000Y-115475000D01*
X92747500Y-106790000D02*
X92710000Y-106790000D01*
%TD*%
%TA.AperFunction,Conductor*%
%TO.N,GND*%
G36*
X98442539Y-43020185D02*
G01*
X98488294Y-43072989D01*
X98499500Y-43124500D01*
X98499500Y-52756230D01*
X98479815Y-52823269D01*
X98427011Y-52869024D01*
X98357853Y-52878968D01*
X98332168Y-52872412D01*
X98207485Y-52825909D01*
X98207483Y-52825908D01*
X98147883Y-52819501D01*
X98147881Y-52819500D01*
X98147873Y-52819500D01*
X98147865Y-52819500D01*
X96865782Y-52819500D01*
X96798743Y-52799815D01*
X96778101Y-52783181D01*
X94257075Y-50262155D01*
X94223590Y-50200832D01*
X94228574Y-50131140D01*
X94257075Y-50086793D01*
X94272712Y-50071156D01*
X94364814Y-49921834D01*
X94419999Y-49755297D01*
X94430500Y-49652509D01*
X94430499Y-48352492D01*
X94425601Y-48304548D01*
X94419999Y-48249703D01*
X94419998Y-48249700D01*
X94388707Y-48155271D01*
X94364814Y-48083166D01*
X94272712Y-47933844D01*
X94148656Y-47809788D01*
X94148655Y-47809787D01*
X94139402Y-47804080D01*
X94092678Y-47752132D01*
X94080500Y-47698542D01*
X94080500Y-47422699D01*
X94100185Y-47355660D01*
X94109471Y-47343164D01*
X94235048Y-47170320D01*
X94235047Y-47170320D01*
X94235051Y-47170316D01*
X94331557Y-46980912D01*
X94397246Y-46778743D01*
X94430500Y-46568787D01*
X94430500Y-46356213D01*
X94397246Y-46146257D01*
X94331557Y-45944088D01*
X94235051Y-45754684D01*
X94235049Y-45754681D01*
X94235048Y-45754679D01*
X94110109Y-45582713D01*
X93959786Y-45432390D01*
X93787820Y-45307451D01*
X93598414Y-45210944D01*
X93598413Y-45210943D01*
X93598412Y-45210943D01*
X93396243Y-45145254D01*
X93396241Y-45145253D01*
X93396240Y-45145253D01*
X93234957Y-45119708D01*
X93186287Y-45112000D01*
X92973713Y-45112000D01*
X92925042Y-45119708D01*
X92763760Y-45145253D01*
X92561585Y-45210944D01*
X92372179Y-45307451D01*
X92200213Y-45432390D01*
X92049890Y-45582713D01*
X91924949Y-45754682D01*
X91920202Y-45763999D01*
X91872227Y-45814793D01*
X91804405Y-45831587D01*
X91738271Y-45809048D01*
X91699234Y-45763995D01*
X91694626Y-45754952D01*
X91655270Y-45700782D01*
X91655269Y-45700782D01*
X91022962Y-46333090D01*
X91005925Y-46269507D01*
X90940099Y-46155493D01*
X90847007Y-46062401D01*
X90732993Y-45996575D01*
X90669409Y-45979537D01*
X91301716Y-45347228D01*
X91247550Y-45307875D01*
X91058217Y-45211404D01*
X90856129Y-45145742D01*
X90646246Y-45112500D01*
X90433754Y-45112500D01*
X90223872Y-45145742D01*
X90223869Y-45145742D01*
X90021782Y-45211404D01*
X89832439Y-45307880D01*
X89778282Y-45347227D01*
X89778282Y-45347228D01*
X90410591Y-45979537D01*
X90347007Y-45996575D01*
X90232993Y-46062401D01*
X90139901Y-46155493D01*
X90074075Y-46269507D01*
X90057037Y-46333091D01*
X89424728Y-45700782D01*
X89424727Y-45700782D01*
X89385380Y-45754940D01*
X89380483Y-45764551D01*
X89332506Y-45815345D01*
X89264684Y-45832138D01*
X89198550Y-45809598D01*
X89159516Y-45764548D01*
X89154626Y-45754952D01*
X89115270Y-45700782D01*
X89115269Y-45700782D01*
X88482962Y-46333090D01*
X88465925Y-46269507D01*
X88400099Y-46155493D01*
X88307007Y-46062401D01*
X88192993Y-45996575D01*
X88129409Y-45979537D01*
X88761716Y-45347228D01*
X88707550Y-45307875D01*
X88518217Y-45211404D01*
X88316129Y-45145742D01*
X88106246Y-45112500D01*
X87893754Y-45112500D01*
X87683872Y-45145742D01*
X87683869Y-45145742D01*
X87481782Y-45211404D01*
X87292439Y-45307880D01*
X87238282Y-45347227D01*
X87238282Y-45347228D01*
X87870591Y-45979537D01*
X87807007Y-45996575D01*
X87692993Y-46062401D01*
X87599901Y-46155493D01*
X87534075Y-46269507D01*
X87517037Y-46333091D01*
X86884728Y-45700782D01*
X86884727Y-45700782D01*
X86845380Y-45754940D01*
X86840483Y-45764551D01*
X86792506Y-45815345D01*
X86724684Y-45832138D01*
X86658550Y-45809598D01*
X86619516Y-45764548D01*
X86614626Y-45754952D01*
X86575270Y-45700782D01*
X86575269Y-45700782D01*
X85942962Y-46333090D01*
X85925925Y-46269507D01*
X85860099Y-46155493D01*
X85767007Y-46062401D01*
X85652993Y-45996575D01*
X85589409Y-45979537D01*
X86221716Y-45347228D01*
X86167550Y-45307875D01*
X85978217Y-45211404D01*
X85776129Y-45145742D01*
X85566246Y-45112500D01*
X85353754Y-45112500D01*
X85143872Y-45145742D01*
X85143869Y-45145742D01*
X84941782Y-45211404D01*
X84752439Y-45307880D01*
X84698282Y-45347227D01*
X84698282Y-45347228D01*
X85330591Y-45979537D01*
X85267007Y-45996575D01*
X85152993Y-46062401D01*
X85059901Y-46155493D01*
X84994075Y-46269507D01*
X84977037Y-46333091D01*
X84344728Y-45700782D01*
X84344727Y-45700782D01*
X84305380Y-45754940D01*
X84305376Y-45754946D01*
X84300760Y-45764005D01*
X84252781Y-45814797D01*
X84184959Y-45831587D01*
X84118826Y-45809043D01*
X84079794Y-45763993D01*
X84075051Y-45754684D01*
X84075049Y-45754681D01*
X84075048Y-45754679D01*
X83950109Y-45582713D01*
X83799786Y-45432390D01*
X83627820Y-45307451D01*
X83438414Y-45210944D01*
X83438413Y-45210943D01*
X83438412Y-45210943D01*
X83236243Y-45145254D01*
X83236241Y-45145253D01*
X83236240Y-45145253D01*
X83074957Y-45119708D01*
X83026287Y-45112000D01*
X82813713Y-45112000D01*
X82765042Y-45119708D01*
X82603760Y-45145253D01*
X82401585Y-45210944D01*
X82212179Y-45307451D01*
X82036266Y-45435259D01*
X82035635Y-45434391D01*
X81976581Y-45460859D01*
X81959800Y-45462000D01*
X71758283Y-45462000D01*
X71691244Y-45442315D01*
X71670602Y-45425681D01*
X71386572Y-45141651D01*
X71353087Y-45080328D01*
X71351084Y-45050834D01*
X71350500Y-45050834D01*
X71350500Y-44794038D01*
X71311090Y-44545215D01*
X71233241Y-44305621D01*
X71233239Y-44305618D01*
X71233239Y-44305616D01*
X71191747Y-44224184D01*
X71118870Y-44081155D01*
X71099952Y-44055117D01*
X70970798Y-43877350D01*
X70970794Y-43877345D01*
X70792654Y-43699205D01*
X70792649Y-43699201D01*
X70588848Y-43551132D01*
X70588847Y-43551131D01*
X70588845Y-43551130D01*
X70518747Y-43515413D01*
X70364383Y-43436760D01*
X70124785Y-43358910D01*
X69875962Y-43319500D01*
X69624038Y-43319500D01*
X69499626Y-43339205D01*
X69375214Y-43358910D01*
X69135616Y-43436760D01*
X68911151Y-43551132D01*
X68707350Y-43699201D01*
X68707345Y-43699205D01*
X68529205Y-43877345D01*
X68529201Y-43877350D01*
X68381132Y-44081151D01*
X68266760Y-44305616D01*
X68188910Y-44545214D01*
X68188910Y-44545215D01*
X68149500Y-44794038D01*
X68149500Y-45045962D01*
X68165304Y-45145742D01*
X68188910Y-45294785D01*
X68266760Y-45534383D01*
X68291386Y-45582713D01*
X68379146Y-45754952D01*
X68381132Y-45758848D01*
X68529201Y-45962649D01*
X68529205Y-45962654D01*
X68707345Y-46140794D01*
X68707350Y-46140798D01*
X68884504Y-46269507D01*
X68911155Y-46288870D01*
X69043323Y-46356213D01*
X69135616Y-46403239D01*
X69135618Y-46403239D01*
X69135621Y-46403241D01*
X69375215Y-46481090D01*
X69624038Y-46520500D01*
X69624039Y-46520500D01*
X69880834Y-46520500D01*
X69880834Y-46522022D01*
X69942612Y-46534996D01*
X69971651Y-46556572D01*
X70515360Y-47100281D01*
X70515361Y-47100282D01*
X70654718Y-47239639D01*
X70818586Y-47349132D01*
X70925245Y-47393311D01*
X71000664Y-47424551D01*
X71193954Y-47462999D01*
X71193957Y-47463000D01*
X71193959Y-47463000D01*
X81795500Y-47463000D01*
X81862539Y-47482685D01*
X81908294Y-47535489D01*
X81919500Y-47587000D01*
X81919500Y-48042300D01*
X81899815Y-48109339D01*
X81890506Y-48121865D01*
X81764951Y-48294679D01*
X81668444Y-48484085D01*
X81602753Y-48686260D01*
X81569500Y-48896213D01*
X81569500Y-49108786D01*
X81602753Y-49318739D01*
X81668444Y-49520914D01*
X81764951Y-49710320D01*
X81889890Y-49882286D01*
X82040213Y-50032609D01*
X82212179Y-50157548D01*
X82212181Y-50157549D01*
X82212184Y-50157551D01*
X82401588Y-50254057D01*
X82603757Y-50319746D01*
X82813713Y-50353000D01*
X82813714Y-50353000D01*
X83026286Y-50353000D01*
X83026287Y-50353000D01*
X83236243Y-50319746D01*
X83438412Y-50254057D01*
X83627816Y-50157551D01*
X83725207Y-50086793D01*
X83799786Y-50032609D01*
X83799788Y-50032606D01*
X83799792Y-50032604D01*
X83950104Y-49882292D01*
X83950106Y-49882288D01*
X83950109Y-49882286D01*
X84024801Y-49779479D01*
X84075051Y-49710316D01*
X84079793Y-49701008D01*
X84127763Y-49650211D01*
X84195583Y-49633411D01*
X84261719Y-49655945D01*
X84300763Y-49701000D01*
X84305373Y-49710047D01*
X84344728Y-49764216D01*
X84977037Y-49131908D01*
X84994075Y-49195493D01*
X85059901Y-49309507D01*
X85152993Y-49402599D01*
X85267007Y-49468425D01*
X85330590Y-49485462D01*
X84698282Y-50117769D01*
X84698282Y-50117770D01*
X84752449Y-50157124D01*
X84941782Y-50253595D01*
X85143870Y-50319257D01*
X85353754Y-50352500D01*
X85566246Y-50352500D01*
X85776127Y-50319257D01*
X85776130Y-50319257D01*
X85978217Y-50253595D01*
X86167554Y-50157122D01*
X86221716Y-50117770D01*
X86221717Y-50117770D01*
X85589408Y-49485462D01*
X85652993Y-49468425D01*
X85767007Y-49402599D01*
X85860099Y-49309507D01*
X85925925Y-49195493D01*
X85942962Y-49131908D01*
X86575270Y-49764217D01*
X86575270Y-49764216D01*
X86614622Y-49710054D01*
X86619514Y-49700454D01*
X86667488Y-49649657D01*
X86735308Y-49632861D01*
X86801444Y-49655397D01*
X86840486Y-49700454D01*
X86845375Y-49710050D01*
X86884728Y-49764216D01*
X87517037Y-49131908D01*
X87534075Y-49195493D01*
X87599901Y-49309507D01*
X87692993Y-49402599D01*
X87807007Y-49468425D01*
X87870590Y-49485462D01*
X87238282Y-50117769D01*
X87238282Y-50117770D01*
X87292449Y-50157124D01*
X87481782Y-50253595D01*
X87683870Y-50319257D01*
X87893754Y-50352500D01*
X88106246Y-50352500D01*
X88316127Y-50319257D01*
X88316130Y-50319257D01*
X88518217Y-50253595D01*
X88707554Y-50157122D01*
X88761716Y-50117770D01*
X88761717Y-50117770D01*
X88129408Y-49485462D01*
X88192993Y-49468425D01*
X88307007Y-49402599D01*
X88400099Y-49309507D01*
X88465925Y-49195493D01*
X88482962Y-49131908D01*
X89115270Y-49764217D01*
X89115270Y-49764216D01*
X89154622Y-49710054D01*
X89159514Y-49700454D01*
X89207488Y-49649657D01*
X89275308Y-49632861D01*
X89341444Y-49655397D01*
X89380486Y-49700454D01*
X89385375Y-49710050D01*
X89424728Y-49764216D01*
X90057037Y-49131908D01*
X90074075Y-49195493D01*
X90139901Y-49309507D01*
X90232993Y-49402599D01*
X90347007Y-49468425D01*
X90410590Y-49485462D01*
X89778282Y-50117769D01*
X89778282Y-50117770D01*
X89832449Y-50157124D01*
X90021782Y-50253595D01*
X90223870Y-50319257D01*
X90433754Y-50352500D01*
X90646246Y-50352500D01*
X90856127Y-50319257D01*
X90856130Y-50319257D01*
X91058217Y-50253595D01*
X91247554Y-50157122D01*
X91301716Y-50117770D01*
X91301717Y-50117770D01*
X90669408Y-49485462D01*
X90732993Y-49468425D01*
X90847007Y-49402599D01*
X90940099Y-49309507D01*
X91005925Y-49195493D01*
X91022962Y-49131908D01*
X91659441Y-49768388D01*
X91712234Y-49779479D01*
X91761991Y-49828530D01*
X91771291Y-49849727D01*
X91795184Y-49921828D01*
X91795186Y-49921834D01*
X91887288Y-50071156D01*
X92011344Y-50195212D01*
X92020591Y-50200916D01*
X92067318Y-50252860D01*
X92079500Y-50306457D01*
X92079500Y-50598541D01*
X92079500Y-50598543D01*
X92079499Y-50598543D01*
X92117947Y-50791829D01*
X92117950Y-50791839D01*
X92193364Y-50973907D01*
X92193371Y-50973920D01*
X92302860Y-51137781D01*
X92302863Y-51137785D01*
X92446537Y-51281459D01*
X92446559Y-51281479D01*
X95363181Y-54198101D01*
X95377884Y-54225028D01*
X95394477Y-54250847D01*
X95395368Y-54257047D01*
X95396666Y-54259424D01*
X95399500Y-54285782D01*
X95399500Y-54508961D01*
X95379815Y-54576000D01*
X95327011Y-54621755D01*
X95257853Y-54631699D01*
X95194297Y-54602674D01*
X95187819Y-54596642D01*
X94412849Y-53821672D01*
X94412829Y-53821650D01*
X94269155Y-53677976D01*
X94269151Y-53677973D01*
X94105290Y-53568484D01*
X94105281Y-53568479D01*
X93983720Y-53518127D01*
X93983718Y-53518126D01*
X93976535Y-53515151D01*
X93923206Y-53493062D01*
X93814480Y-53471435D01*
X93793923Y-53467346D01*
X93729913Y-53454613D01*
X93729911Y-53454613D01*
X93375762Y-53454613D01*
X93308723Y-53434928D01*
X93302877Y-53430931D01*
X93181613Y-53342828D01*
X93181612Y-53342827D01*
X93181610Y-53342826D01*
X93124653Y-53313804D01*
X92999223Y-53249894D01*
X92804534Y-53186635D01*
X92629995Y-53158991D01*
X92602352Y-53154613D01*
X92397648Y-53154613D01*
X92373329Y-53158464D01*
X92195465Y-53186635D01*
X92000776Y-53249894D01*
X91818386Y-53342828D01*
X91652786Y-53463141D01*
X91508028Y-53607899D01*
X91387715Y-53773499D01*
X91294781Y-53955889D01*
X91231522Y-54150578D01*
X91199500Y-54352761D01*
X91199500Y-54557464D01*
X91231522Y-54759647D01*
X91294781Y-54954336D01*
X91387383Y-55136075D01*
X91400279Y-55204744D01*
X91374003Y-55269485D01*
X91351210Y-55291636D01*
X91342814Y-55297920D01*
X91342808Y-55297927D01*
X91256649Y-55413019D01*
X91256645Y-55413026D01*
X91206403Y-55547733D01*
X91206401Y-55547740D01*
X91200000Y-55607268D01*
X91200000Y-56205113D01*
X92184314Y-56205113D01*
X92179920Y-56209507D01*
X92127259Y-56300719D01*
X92100000Y-56402452D01*
X92100000Y-56507774D01*
X92127259Y-56609507D01*
X92179920Y-56700719D01*
X92184314Y-56705113D01*
X91200000Y-56705113D01*
X91200000Y-57302940D01*
X91200001Y-57302959D01*
X91203137Y-57332128D01*
X91190732Y-57400887D01*
X91143122Y-57452025D01*
X91075422Y-57469304D01*
X91009128Y-57447239D01*
X90974854Y-57411355D01*
X90842523Y-57200752D01*
X90667416Y-56981175D01*
X90468825Y-56782584D01*
X90249248Y-56607477D01*
X90011445Y-56458055D01*
X90011442Y-56458053D01*
X89758411Y-56336200D01*
X89493329Y-56243443D01*
X89493317Y-56243439D01*
X89219512Y-56180945D01*
X89219494Y-56180942D01*
X88940431Y-56149500D01*
X88940425Y-56149500D01*
X88659575Y-56149500D01*
X88659568Y-56149500D01*
X88380505Y-56180942D01*
X88380487Y-56180945D01*
X88106682Y-56243439D01*
X88106670Y-56243443D01*
X87841588Y-56336200D01*
X87588557Y-56458053D01*
X87350753Y-56607476D01*
X87131175Y-56782583D01*
X86932583Y-56981175D01*
X86757476Y-57200753D01*
X86608055Y-57438555D01*
X86486200Y-57691588D01*
X86393443Y-57956670D01*
X86393439Y-57956682D01*
X86330945Y-58230487D01*
X86330942Y-58230505D01*
X86299500Y-58509568D01*
X86299500Y-58990431D01*
X86330942Y-59269494D01*
X86330945Y-59269512D01*
X86393439Y-59543317D01*
X86393443Y-59543329D01*
X86486200Y-59808411D01*
X86608053Y-60061442D01*
X86608055Y-60061445D01*
X86757477Y-60299248D01*
X86932584Y-60518825D01*
X87131175Y-60717416D01*
X87350752Y-60892523D01*
X87588555Y-61041945D01*
X87841592Y-61163801D01*
X88040680Y-61233465D01*
X88106670Y-61256556D01*
X88106682Y-61256560D01*
X88380491Y-61319055D01*
X88380497Y-61319055D01*
X88380505Y-61319057D01*
X88566547Y-61340018D01*
X88659569Y-61350499D01*
X88659572Y-61350500D01*
X88659575Y-61350500D01*
X88940428Y-61350500D01*
X88940429Y-61350499D01*
X89083055Y-61334429D01*
X89219494Y-61319057D01*
X89219499Y-61319056D01*
X89219509Y-61319055D01*
X89493318Y-61256560D01*
X89758408Y-61163801D01*
X90011445Y-61041945D01*
X90249248Y-60892523D01*
X90468825Y-60717416D01*
X90667416Y-60518825D01*
X90842523Y-60299248D01*
X90991945Y-60061445D01*
X91113801Y-59808408D01*
X91206560Y-59543318D01*
X91269055Y-59269509D01*
X91300500Y-58990425D01*
X91300500Y-58509575D01*
X91290018Y-58416547D01*
X91269057Y-58230505D01*
X91269054Y-58230487D01*
X91262516Y-58201844D01*
X91206560Y-57956682D01*
X91126288Y-57727280D01*
X91122727Y-57657502D01*
X91157455Y-57596875D01*
X91219449Y-57564647D01*
X91289024Y-57571052D01*
X91335773Y-57606797D01*
X91336540Y-57606031D01*
X91342287Y-57611778D01*
X91342598Y-57612016D01*
X91342814Y-57612304D01*
X91457906Y-57698463D01*
X91457913Y-57698467D01*
X91592620Y-57748709D01*
X91592627Y-57748711D01*
X91652155Y-57755112D01*
X91652172Y-57755113D01*
X92250000Y-57755113D01*
X92250000Y-56770799D01*
X92254394Y-56775193D01*
X92345606Y-56827854D01*
X92447339Y-56855113D01*
X92552661Y-56855113D01*
X92654394Y-56827854D01*
X92745606Y-56775193D01*
X92750000Y-56770799D01*
X92750000Y-57755113D01*
X93347828Y-57755113D01*
X93347844Y-57755112D01*
X93407372Y-57748711D01*
X93407379Y-57748709D01*
X93542086Y-57698467D01*
X93542093Y-57698463D01*
X93657187Y-57612303D01*
X93657190Y-57612300D01*
X93743350Y-57497206D01*
X93743354Y-57497199D01*
X93793596Y-57362492D01*
X93793598Y-57362485D01*
X93799999Y-57302957D01*
X93800000Y-57302940D01*
X93800000Y-56705113D01*
X92815686Y-56705113D01*
X92820080Y-56700719D01*
X92872741Y-56609507D01*
X92900000Y-56507774D01*
X92900000Y-56402452D01*
X92872741Y-56300719D01*
X92820080Y-56209507D01*
X92815686Y-56205113D01*
X93803705Y-56205113D01*
X93856867Y-56176084D01*
X93926559Y-56181068D01*
X93970906Y-56209569D01*
X95963181Y-58201844D01*
X95996666Y-58263167D01*
X95999500Y-58289525D01*
X95999500Y-63266037D01*
X95979815Y-63333076D01*
X95960376Y-63355350D01*
X95960788Y-63355762D01*
X95779205Y-63537345D01*
X95779201Y-63537350D01*
X95631132Y-63741151D01*
X95516760Y-63965616D01*
X95438910Y-64205214D01*
X95399500Y-64454038D01*
X95399500Y-64634218D01*
X95379815Y-64701257D01*
X95363181Y-64721899D01*
X94121899Y-65963181D01*
X94060576Y-65996666D01*
X94034218Y-65999500D01*
X93125762Y-65999500D01*
X93058723Y-65979815D01*
X93052877Y-65975818D01*
X92931613Y-65887715D01*
X92931612Y-65887714D01*
X92931610Y-65887713D01*
X92874653Y-65858691D01*
X92749223Y-65794781D01*
X92554534Y-65731522D01*
X92379995Y-65703878D01*
X92352352Y-65699500D01*
X92147648Y-65699500D01*
X92123329Y-65703351D01*
X91945465Y-65731522D01*
X91750776Y-65794781D01*
X91568386Y-65887715D01*
X91447123Y-65975818D01*
X91381317Y-65999298D01*
X91374238Y-65999500D01*
X90220134Y-65999500D01*
X90123491Y-66018724D01*
X90026846Y-66037947D01*
X90026840Y-66037949D01*
X89973513Y-66060037D01*
X89973513Y-66060038D01*
X89927994Y-66078892D01*
X89844768Y-66113366D01*
X89844758Y-66113371D01*
X89680898Y-66222859D01*
X89611219Y-66292538D01*
X89541540Y-66362218D01*
X89541537Y-66362221D01*
X88112221Y-67791537D01*
X88112218Y-67791540D01*
X88042538Y-67861219D01*
X87972859Y-67930898D01*
X87863371Y-68094758D01*
X87863366Y-68094768D01*
X87810038Y-68223510D01*
X87810038Y-68223513D01*
X87805371Y-68234781D01*
X87791418Y-68268470D01*
X87791417Y-68268471D01*
X87787949Y-68276842D01*
X87787946Y-68276852D01*
X87749500Y-68470133D01*
X87749500Y-68501701D01*
X87729815Y-68568740D01*
X87677011Y-68614495D01*
X87607853Y-68624439D01*
X87552616Y-68602020D01*
X87484024Y-68552186D01*
X87287606Y-68452104D01*
X87287603Y-68452103D01*
X87077952Y-68383985D01*
X86969086Y-68366742D01*
X86860222Y-68349500D01*
X86639778Y-68349500D01*
X86567201Y-68360995D01*
X86422047Y-68383985D01*
X86212396Y-68452103D01*
X86212393Y-68452104D01*
X86015974Y-68552187D01*
X85837641Y-68681752D01*
X85837636Y-68681756D01*
X85681756Y-68837636D01*
X85681752Y-68837641D01*
X85600318Y-68949727D01*
X85544989Y-68992393D01*
X85475375Y-68998372D01*
X85413580Y-68965767D01*
X85399682Y-68949727D01*
X85318247Y-68837641D01*
X85318243Y-68837636D01*
X85162363Y-68681756D01*
X85162358Y-68681752D01*
X84984025Y-68552187D01*
X84984024Y-68552186D01*
X84984022Y-68552185D01*
X84884943Y-68501701D01*
X84787606Y-68452104D01*
X84787603Y-68452103D01*
X84577952Y-68383985D01*
X84469086Y-68366742D01*
X84360222Y-68349500D01*
X84139778Y-68349500D01*
X84067201Y-68360995D01*
X83922047Y-68383985D01*
X83712396Y-68452103D01*
X83712393Y-68452104D01*
X83515974Y-68552187D01*
X83337641Y-68681752D01*
X83337636Y-68681756D01*
X83181756Y-68837636D01*
X83181752Y-68837641D01*
X83100318Y-68949727D01*
X83044989Y-68992393D01*
X82975375Y-68998372D01*
X82913580Y-68965767D01*
X82899682Y-68949727D01*
X82818247Y-68837641D01*
X82818243Y-68837636D01*
X82662363Y-68681756D01*
X82662358Y-68681752D01*
X82484025Y-68552187D01*
X82484024Y-68552186D01*
X82484022Y-68552185D01*
X82384943Y-68501701D01*
X82287606Y-68452104D01*
X82287603Y-68452103D01*
X82077952Y-68383985D01*
X81969086Y-68366742D01*
X81860222Y-68349500D01*
X81639778Y-68349500D01*
X81567201Y-68360995D01*
X81422047Y-68383985D01*
X81212396Y-68452103D01*
X81212393Y-68452104D01*
X81015974Y-68552187D01*
X80837641Y-68681752D01*
X80837635Y-68681757D01*
X80816207Y-68703185D01*
X80754884Y-68736669D01*
X80685192Y-68731683D01*
X80629259Y-68689810D01*
X80612346Y-68658834D01*
X80593355Y-68607915D01*
X80593350Y-68607906D01*
X80507190Y-68492812D01*
X80507187Y-68492809D01*
X80392093Y-68406649D01*
X80392086Y-68406645D01*
X80257379Y-68356403D01*
X80257372Y-68356401D01*
X80197844Y-68350000D01*
X79500000Y-68350000D01*
X79500000Y-69316988D01*
X79442993Y-69284075D01*
X79315826Y-69250000D01*
X79184174Y-69250000D01*
X79057007Y-69284075D01*
X79000000Y-69316988D01*
X79000000Y-68350000D01*
X78302155Y-68350000D01*
X78242627Y-68356401D01*
X78242620Y-68356403D01*
X78107913Y-68406645D01*
X78107906Y-68406649D01*
X77992812Y-68492809D01*
X77992809Y-68492812D01*
X77906649Y-68607906D01*
X77906645Y-68607913D01*
X77856403Y-68742620D01*
X77856401Y-68742627D01*
X77850000Y-68802155D01*
X77850000Y-69500000D01*
X78816988Y-69500000D01*
X78784075Y-69557007D01*
X78750000Y-69684174D01*
X78750000Y-69815826D01*
X78784075Y-69942993D01*
X78816988Y-70000000D01*
X77850000Y-70000000D01*
X77850000Y-70697844D01*
X77856401Y-70757372D01*
X77856403Y-70757379D01*
X77906645Y-70892086D01*
X77906649Y-70892093D01*
X77992809Y-71007187D01*
X77992812Y-71007190D01*
X78107906Y-71093350D01*
X78107913Y-71093354D01*
X78242620Y-71143596D01*
X78242627Y-71143598D01*
X78302155Y-71149999D01*
X78302172Y-71150000D01*
X79000000Y-71150000D01*
X79000000Y-70183012D01*
X79057007Y-70215925D01*
X79184174Y-70250000D01*
X79315826Y-70250000D01*
X79442993Y-70215925D01*
X79500000Y-70183012D01*
X79500000Y-71150000D01*
X80197828Y-71150000D01*
X80197844Y-71149999D01*
X80257372Y-71143598D01*
X80257379Y-71143596D01*
X80392086Y-71093354D01*
X80392093Y-71093350D01*
X80507187Y-71007190D01*
X80507190Y-71007187D01*
X80593350Y-70892093D01*
X80593353Y-70892088D01*
X80612345Y-70841166D01*
X80654215Y-70785232D01*
X80719679Y-70760813D01*
X80787952Y-70775663D01*
X80816209Y-70796816D01*
X80837636Y-70818243D01*
X80837641Y-70818247D01*
X80993192Y-70931260D01*
X81015978Y-70947815D01*
X81132501Y-71007187D01*
X81212393Y-71047895D01*
X81212396Y-71047896D01*
X81279525Y-71069707D01*
X81422049Y-71116015D01*
X81639778Y-71150500D01*
X81639779Y-71150500D01*
X81860221Y-71150500D01*
X81860222Y-71150500D01*
X82077951Y-71116015D01*
X82148205Y-71093187D01*
X82218044Y-71091192D01*
X82274203Y-71123438D01*
X82639084Y-71488319D01*
X82672569Y-71549642D01*
X82667585Y-71619334D01*
X82625713Y-71675267D01*
X82560249Y-71699684D01*
X82551403Y-71700000D01*
X82397683Y-71700000D01*
X82195582Y-71732009D01*
X82000968Y-71795244D01*
X81818644Y-71888143D01*
X81774077Y-71920523D01*
X81774077Y-71920524D01*
X82453554Y-72600000D01*
X82447339Y-72600000D01*
X82345606Y-72627259D01*
X82254394Y-72679920D01*
X82179920Y-72754394D01*
X82127259Y-72845606D01*
X82100000Y-72947339D01*
X82100000Y-72953553D01*
X81420524Y-72274077D01*
X81420523Y-72274077D01*
X81388143Y-72318644D01*
X81295244Y-72500968D01*
X81232009Y-72695582D01*
X81200000Y-72897682D01*
X81200000Y-73102317D01*
X81232009Y-73304417D01*
X81295244Y-73499031D01*
X81388141Y-73681350D01*
X81388147Y-73681359D01*
X81420523Y-73725921D01*
X81420524Y-73725922D01*
X82100000Y-73046446D01*
X82100000Y-73052661D01*
X82127259Y-73154394D01*
X82179920Y-73245606D01*
X82254394Y-73320080D01*
X82345606Y-73372741D01*
X82447339Y-73400000D01*
X82453553Y-73400000D01*
X81774076Y-74079474D01*
X81818650Y-74111859D01*
X82000968Y-74204755D01*
X82195582Y-74267990D01*
X82397683Y-74300000D01*
X82602317Y-74300000D01*
X82804417Y-74267990D01*
X82999031Y-74204755D01*
X83181349Y-74111859D01*
X83225921Y-74079474D01*
X82546447Y-73400000D01*
X82552661Y-73400000D01*
X82654394Y-73372741D01*
X82745606Y-73320080D01*
X82820080Y-73245606D01*
X82872741Y-73154394D01*
X82900000Y-73052661D01*
X82900000Y-73046446D01*
X83579474Y-73725921D01*
X83611859Y-73681349D01*
X83704755Y-73499031D01*
X83767990Y-73304417D01*
X83800000Y-73102317D01*
X83800000Y-72948597D01*
X83819685Y-72881558D01*
X83872489Y-72835803D01*
X83941647Y-72825859D01*
X84005203Y-72854884D01*
X84011681Y-72860916D01*
X84863181Y-73712416D01*
X84896666Y-73773739D01*
X84899500Y-73800097D01*
X84899500Y-74634978D01*
X84879815Y-74702017D01*
X84827011Y-74747772D01*
X84757853Y-74757716D01*
X84710405Y-74740518D01*
X84687912Y-74726645D01*
X84669334Y-74715186D01*
X84502797Y-74660001D01*
X84502795Y-74660000D01*
X84400010Y-74649500D01*
X83199998Y-74649500D01*
X83199981Y-74649501D01*
X83097203Y-74660000D01*
X83097200Y-74660001D01*
X82930668Y-74715185D01*
X82930663Y-74715187D01*
X82781342Y-74807289D01*
X82657289Y-74931342D01*
X82565187Y-75080663D01*
X82565185Y-75080668D01*
X82550665Y-75124486D01*
X82510001Y-75247203D01*
X82510001Y-75247204D01*
X82510000Y-75247204D01*
X82499500Y-75349983D01*
X82499500Y-76550001D01*
X82499501Y-76550018D01*
X82510000Y-76652796D01*
X82510001Y-76652799D01*
X82551253Y-76777288D01*
X82565186Y-76819334D01*
X82657288Y-76968656D01*
X82781344Y-77092712D01*
X82930666Y-77184814D01*
X83012570Y-77211954D01*
X83070015Y-77251727D01*
X83096838Y-77316243D01*
X83084523Y-77385018D01*
X83046451Y-77429978D01*
X82952787Y-77498028D01*
X82952782Y-77498032D01*
X82808028Y-77642786D01*
X82687715Y-77808386D01*
X82594781Y-77990776D01*
X82531522Y-78185465D01*
X82499500Y-78387648D01*
X82499500Y-78592351D01*
X82531522Y-78794534D01*
X82594781Y-78989223D01*
X82656952Y-79111239D01*
X82679806Y-79156092D01*
X82687715Y-79171613D01*
X82808028Y-79337213D01*
X82952786Y-79481971D01*
X83107749Y-79594556D01*
X83118390Y-79602287D01*
X83209840Y-79648883D01*
X83211080Y-79649515D01*
X83261876Y-79697490D01*
X83278671Y-79765311D01*
X83256134Y-79831446D01*
X83211080Y-79870485D01*
X83118386Y-79917715D01*
X82952786Y-80038028D01*
X82808028Y-80182786D01*
X82687715Y-80348386D01*
X82594781Y-80530776D01*
X82531522Y-80725465D01*
X82499500Y-80927648D01*
X82499500Y-81132351D01*
X82531522Y-81334534D01*
X82594781Y-81529223D01*
X82687715Y-81711613D01*
X82808028Y-81877213D01*
X82952786Y-82021971D01*
X83107749Y-82134556D01*
X83118390Y-82142287D01*
X83209840Y-82188883D01*
X83211080Y-82189515D01*
X83261876Y-82237490D01*
X83278671Y-82305311D01*
X83256134Y-82371446D01*
X83211080Y-82410485D01*
X83118386Y-82457715D01*
X82952786Y-82578028D01*
X82808028Y-82722786D01*
X82687715Y-82888386D01*
X82594781Y-83070778D01*
X82531522Y-83265468D01*
X82508073Y-83413515D01*
X82478143Y-83476649D01*
X82473281Y-83481797D01*
X82145905Y-83809174D01*
X81862220Y-84092859D01*
X81862218Y-84092861D01*
X81815579Y-84139500D01*
X81722859Y-84232219D01*
X81613371Y-84396080D01*
X81613366Y-84396090D01*
X81591850Y-84448035D01*
X81537950Y-84578159D01*
X81537949Y-84578164D01*
X81531680Y-84609681D01*
X81531680Y-84609682D01*
X81499500Y-84771456D01*
X81499500Y-85624237D01*
X81479815Y-85691276D01*
X81475818Y-85697122D01*
X81387715Y-85818386D01*
X81294781Y-86000776D01*
X81231522Y-86195465D01*
X81199500Y-86397648D01*
X81199500Y-86602351D01*
X81231522Y-86804534D01*
X81294781Y-86999223D01*
X81358691Y-87124653D01*
X81387585Y-87181359D01*
X81387715Y-87181613D01*
X81508028Y-87347213D01*
X81652786Y-87491971D01*
X81737978Y-87553865D01*
X81818390Y-87612287D01*
X81916093Y-87662069D01*
X82000776Y-87705218D01*
X82000778Y-87705218D01*
X82000781Y-87705220D01*
X82062547Y-87725289D01*
X82195465Y-87768477D01*
X82296557Y-87784488D01*
X82397648Y-87800500D01*
X82397649Y-87800500D01*
X82602351Y-87800500D01*
X82602352Y-87800500D01*
X82804534Y-87768477D01*
X82999219Y-87705220D01*
X83181610Y-87612287D01*
X83302877Y-87524181D01*
X83368683Y-87500702D01*
X83375762Y-87500500D01*
X84848542Y-87500500D01*
X84879566Y-87494328D01*
X84945188Y-87481275D01*
X85041836Y-87462051D01*
X85095165Y-87439961D01*
X85223914Y-87386632D01*
X85387782Y-87277139D01*
X85527139Y-87137782D01*
X85527139Y-87137780D01*
X85537347Y-87127573D01*
X85537348Y-87127570D01*
X87277140Y-85387781D01*
X87322728Y-85319553D01*
X87386632Y-85223914D01*
X87462051Y-85041835D01*
X87500500Y-84848541D01*
X87500500Y-83873945D01*
X88029500Y-83873945D01*
X88029500Y-84066054D01*
X88059553Y-84255802D01*
X88118916Y-84438506D01*
X88202745Y-84603028D01*
X88206135Y-84609681D01*
X88319055Y-84765102D01*
X88454898Y-84900945D01*
X88509721Y-84940776D01*
X88598386Y-85005195D01*
X88641051Y-85060525D01*
X88649500Y-85105513D01*
X88649500Y-85374486D01*
X88629815Y-85441525D01*
X88598386Y-85474804D01*
X88454896Y-85579056D01*
X88319057Y-85714895D01*
X88319057Y-85714896D01*
X88319055Y-85714898D01*
X88315036Y-85720430D01*
X88206135Y-85870318D01*
X88118916Y-86041493D01*
X88059553Y-86224197D01*
X88029500Y-86413945D01*
X88029500Y-86606054D01*
X88059553Y-86795802D01*
X88118916Y-86978506D01*
X88165322Y-87069582D01*
X88206135Y-87149681D01*
X88319055Y-87305102D01*
X88454898Y-87440945D01*
X88610319Y-87553865D01*
X88724138Y-87611859D01*
X88781493Y-87641083D01*
X88846081Y-87662069D01*
X88903756Y-87701506D01*
X88930955Y-87765865D01*
X88919041Y-87834711D01*
X88871797Y-87886187D01*
X88846081Y-87897931D01*
X88781493Y-87918916D01*
X88610318Y-88006135D01*
X88521645Y-88070560D01*
X88454898Y-88119055D01*
X88454896Y-88119057D01*
X88454895Y-88119057D01*
X88319057Y-88254895D01*
X88319057Y-88254896D01*
X88319055Y-88254898D01*
X88270560Y-88321645D01*
X88206135Y-88410318D01*
X88118916Y-88581493D01*
X88059553Y-88764197D01*
X88029500Y-88953945D01*
X88029500Y-89146054D01*
X88059553Y-89335802D01*
X88118916Y-89518506D01*
X88118918Y-89518509D01*
X88206135Y-89689681D01*
X88319055Y-89845102D01*
X88454898Y-89980945D01*
X88610319Y-90093865D01*
X88781491Y-90181082D01*
X88781493Y-90181083D01*
X88872845Y-90210764D01*
X88964199Y-90240447D01*
X89153945Y-90270500D01*
X89153946Y-90270500D01*
X89346054Y-90270500D01*
X89346055Y-90270500D01*
X89535801Y-90240447D01*
X89718509Y-90181082D01*
X89889681Y-90093865D01*
X90045102Y-89980945D01*
X90180945Y-89845102D01*
X90293865Y-89689681D01*
X90381082Y-89518509D01*
X90440447Y-89335801D01*
X90470500Y-89146055D01*
X90470500Y-88953945D01*
X90440447Y-88764199D01*
X90381082Y-88581491D01*
X90293865Y-88410319D01*
X90180945Y-88254898D01*
X90045102Y-88119055D01*
X89889681Y-88006135D01*
X89718504Y-87918915D01*
X89653919Y-87897931D01*
X89596243Y-87858494D01*
X89569044Y-87794136D01*
X89580958Y-87725289D01*
X89628202Y-87673813D01*
X89653919Y-87662069D01*
X89718504Y-87641084D01*
X89718506Y-87641082D01*
X89718509Y-87641082D01*
X89889681Y-87553865D01*
X90045102Y-87440945D01*
X90180945Y-87305102D01*
X90293865Y-87149681D01*
X90381082Y-86978509D01*
X90440447Y-86795801D01*
X90470500Y-86606055D01*
X90470500Y-86413945D01*
X90440447Y-86224199D01*
X90381082Y-86041491D01*
X90293865Y-85870319D01*
X90180945Y-85714898D01*
X90045102Y-85579055D01*
X89994583Y-85542351D01*
X89901614Y-85474804D01*
X89898273Y-85470471D01*
X89893297Y-85468199D01*
X89877164Y-85443096D01*
X89858949Y-85419473D01*
X89857696Y-85412802D01*
X89855523Y-85409421D01*
X89850500Y-85374486D01*
X89850500Y-85337648D01*
X92449500Y-85337648D01*
X92449500Y-85542351D01*
X92481522Y-85744534D01*
X92544781Y-85939223D01*
X92637715Y-86121613D01*
X92758028Y-86287213D01*
X92902786Y-86431971D01*
X93057749Y-86544556D01*
X93068390Y-86552287D01*
X93184607Y-86611503D01*
X93250776Y-86645218D01*
X93250778Y-86645218D01*
X93250781Y-86645220D01*
X93355137Y-86679127D01*
X93445465Y-86708477D01*
X93546557Y-86724488D01*
X93647648Y-86740500D01*
X93647649Y-86740500D01*
X93852351Y-86740500D01*
X93852352Y-86740500D01*
X94054534Y-86708477D01*
X94249219Y-86645220D01*
X94431610Y-86552287D01*
X94576060Y-86447339D01*
X94597213Y-86431971D01*
X94597215Y-86431968D01*
X94597219Y-86431966D01*
X94741966Y-86287219D01*
X94741968Y-86287215D01*
X94741971Y-86287213D01*
X94794732Y-86214590D01*
X94862287Y-86121610D01*
X94955220Y-85939219D01*
X95018477Y-85744534D01*
X95050500Y-85542352D01*
X95050500Y-85337648D01*
X95018477Y-85135466D01*
X95016900Y-85130614D01*
X94985453Y-85033828D01*
X94955220Y-84940781D01*
X94955218Y-84940778D01*
X94955218Y-84940776D01*
X94903093Y-84838476D01*
X94862287Y-84758390D01*
X94854556Y-84747749D01*
X94741971Y-84592786D01*
X94597213Y-84448028D01*
X94431613Y-84327715D01*
X94431612Y-84327714D01*
X94431610Y-84327713D01*
X94374653Y-84298691D01*
X94249223Y-84234781D01*
X94054534Y-84171522D01*
X93879995Y-84143878D01*
X93852352Y-84139500D01*
X93647648Y-84139500D01*
X93623329Y-84143351D01*
X93445465Y-84171522D01*
X93250776Y-84234781D01*
X93068386Y-84327715D01*
X92902786Y-84448028D01*
X92758028Y-84592786D01*
X92637715Y-84758386D01*
X92544781Y-84940776D01*
X92481522Y-85135465D01*
X92449500Y-85337648D01*
X89850500Y-85337648D01*
X89850500Y-85105513D01*
X89870185Y-85038474D01*
X89901614Y-85005195D01*
X90045102Y-84900945D01*
X90180945Y-84765102D01*
X90293865Y-84609681D01*
X90381082Y-84438509D01*
X90440447Y-84255801D01*
X90470500Y-84066055D01*
X90470500Y-83873945D01*
X90440447Y-83684199D01*
X90402690Y-83567993D01*
X90381083Y-83501493D01*
X90356531Y-83453308D01*
X90293865Y-83330319D01*
X90180945Y-83174898D01*
X90045102Y-83039055D01*
X89889681Y-82926135D01*
X89815595Y-82888386D01*
X89718506Y-82838916D01*
X89535802Y-82779553D01*
X89440928Y-82764526D01*
X89346055Y-82749500D01*
X89153945Y-82749500D01*
X89090696Y-82759517D01*
X88964197Y-82779553D01*
X88781493Y-82838916D01*
X88610318Y-82926135D01*
X88521645Y-82990560D01*
X88454898Y-83039055D01*
X88454896Y-83039057D01*
X88454895Y-83039057D01*
X88319057Y-83174895D01*
X88319057Y-83174896D01*
X88319055Y-83174898D01*
X88270560Y-83241645D01*
X88206135Y-83330318D01*
X88118916Y-83501493D01*
X88059553Y-83684197D01*
X88029500Y-83873945D01*
X87500500Y-83873945D01*
X87500500Y-80352155D01*
X94400000Y-80352155D01*
X94400000Y-81000000D01*
X95316988Y-81000000D01*
X95284075Y-81057007D01*
X95250000Y-81184174D01*
X95250000Y-81315826D01*
X95284075Y-81442993D01*
X95316988Y-81500000D01*
X94400000Y-81500000D01*
X94400000Y-82147844D01*
X94406401Y-82207372D01*
X94406403Y-82207379D01*
X94456645Y-82342086D01*
X94456649Y-82342093D01*
X94542809Y-82457187D01*
X94542812Y-82457190D01*
X94657906Y-82543350D01*
X94657913Y-82543354D01*
X94792620Y-82593596D01*
X94792627Y-82593598D01*
X94852155Y-82599999D01*
X94852172Y-82600000D01*
X95500000Y-82600000D01*
X95500000Y-81683012D01*
X95557007Y-81715925D01*
X95684174Y-81750000D01*
X95815826Y-81750000D01*
X95942993Y-81715925D01*
X96000000Y-81683012D01*
X96000000Y-82600000D01*
X96647828Y-82600000D01*
X96647844Y-82599999D01*
X96707372Y-82593598D01*
X96707379Y-82593596D01*
X96842086Y-82543354D01*
X96842093Y-82543350D01*
X96957187Y-82457190D01*
X96957190Y-82457187D01*
X97043350Y-82342093D01*
X97043354Y-82342086D01*
X97093596Y-82207379D01*
X97093598Y-82207372D01*
X97099999Y-82147844D01*
X97100000Y-82147827D01*
X97100000Y-81500000D01*
X96183012Y-81500000D01*
X96215925Y-81442993D01*
X96250000Y-81315826D01*
X96250000Y-81184174D01*
X96215925Y-81057007D01*
X96183012Y-81000000D01*
X97100000Y-81000000D01*
X97100000Y-80352172D01*
X97099999Y-80352155D01*
X97093598Y-80292627D01*
X97093596Y-80292620D01*
X97043354Y-80157913D01*
X97043350Y-80157906D01*
X96957190Y-80042812D01*
X96957187Y-80042809D01*
X96842093Y-79956649D01*
X96842086Y-79956645D01*
X96707379Y-79906403D01*
X96707372Y-79906401D01*
X96647844Y-79900000D01*
X96000000Y-79900000D01*
X96000000Y-80816988D01*
X95942993Y-80784075D01*
X95815826Y-80750000D01*
X95684174Y-80750000D01*
X95557007Y-80784075D01*
X95500000Y-80816988D01*
X95500000Y-79900000D01*
X94852155Y-79900000D01*
X94792627Y-79906401D01*
X94792620Y-79906403D01*
X94657913Y-79956645D01*
X94657906Y-79956649D01*
X94542812Y-80042809D01*
X94542809Y-80042812D01*
X94456649Y-80157906D01*
X94456645Y-80157913D01*
X94406403Y-80292620D01*
X94406401Y-80292627D01*
X94400000Y-80352155D01*
X87500500Y-80352155D01*
X87500500Y-78199097D01*
X87520185Y-78132058D01*
X87572989Y-78086303D01*
X87642147Y-78076359D01*
X87705703Y-78105384D01*
X87712175Y-78111411D01*
X87877349Y-78276585D01*
X88022453Y-78421689D01*
X88055938Y-78483012D01*
X88057245Y-78528768D01*
X88029500Y-78703945D01*
X88029500Y-78896054D01*
X88059553Y-79085802D01*
X88118916Y-79268506D01*
X88175718Y-79379984D01*
X88206135Y-79439681D01*
X88319055Y-79595102D01*
X88454898Y-79730945D01*
X88610319Y-79843865D01*
X88733052Y-79906401D01*
X88781493Y-79931083D01*
X88839872Y-79950051D01*
X88964199Y-79990447D01*
X89153945Y-80020500D01*
X89153946Y-80020500D01*
X89346054Y-80020500D01*
X89346055Y-80020500D01*
X89535801Y-79990447D01*
X89718509Y-79931082D01*
X89889681Y-79843865D01*
X90045102Y-79730945D01*
X90180945Y-79595102D01*
X90293865Y-79439681D01*
X90381082Y-79268509D01*
X90440447Y-79085801D01*
X90470500Y-78896055D01*
X90470500Y-78703945D01*
X90440447Y-78514199D01*
X90410389Y-78421689D01*
X90381083Y-78331493D01*
X90306678Y-78185466D01*
X90293865Y-78160319D01*
X90180945Y-78004898D01*
X90045102Y-77869055D01*
X89889681Y-77756135D01*
X89861174Y-77741610D01*
X89718504Y-77668915D01*
X89653919Y-77647931D01*
X89596243Y-77608494D01*
X89569044Y-77544136D01*
X89580958Y-77475289D01*
X89628202Y-77423813D01*
X89653919Y-77412069D01*
X89718504Y-77391084D01*
X89718506Y-77391082D01*
X89718509Y-77391082D01*
X89889681Y-77303865D01*
X90045102Y-77190945D01*
X90180945Y-77055102D01*
X90251749Y-76957648D01*
X92449500Y-76957648D01*
X92449500Y-77162351D01*
X92481522Y-77364534D01*
X92544781Y-77559223D01*
X92637715Y-77741613D01*
X92758028Y-77907213D01*
X92902786Y-78051971D01*
X93013019Y-78132058D01*
X93068390Y-78172287D01*
X93184607Y-78231503D01*
X93250776Y-78265218D01*
X93250778Y-78265218D01*
X93250781Y-78265220D01*
X93354711Y-78298989D01*
X93445465Y-78328477D01*
X93546557Y-78344488D01*
X93647648Y-78360500D01*
X93647649Y-78360500D01*
X93852351Y-78360500D01*
X93852352Y-78360500D01*
X94054534Y-78328477D01*
X94249219Y-78265220D01*
X94431610Y-78172287D01*
X94563645Y-78076359D01*
X94597213Y-78051971D01*
X94597215Y-78051968D01*
X94597219Y-78051966D01*
X94741966Y-77907219D01*
X94741968Y-77907215D01*
X94741971Y-77907213D01*
X94826556Y-77790790D01*
X94862287Y-77741610D01*
X94955220Y-77559219D01*
X95018477Y-77364534D01*
X95050500Y-77162352D01*
X95050500Y-76957648D01*
X95024907Y-76796064D01*
X95018477Y-76755465D01*
X94955218Y-76560776D01*
X94898376Y-76449219D01*
X94862287Y-76378390D01*
X94846059Y-76356054D01*
X94741971Y-76212786D01*
X94597213Y-76068028D01*
X94431613Y-75947715D01*
X94431612Y-75947714D01*
X94431610Y-75947713D01*
X94374653Y-75918691D01*
X94249223Y-75854781D01*
X94054534Y-75791522D01*
X93879995Y-75763878D01*
X93852352Y-75759500D01*
X93647648Y-75759500D01*
X93623329Y-75763351D01*
X93445465Y-75791522D01*
X93250776Y-75854781D01*
X93068386Y-75947715D01*
X92902786Y-76068028D01*
X92758028Y-76212786D01*
X92637715Y-76378386D01*
X92544781Y-76560776D01*
X92481522Y-76755465D01*
X92449500Y-76957648D01*
X90251749Y-76957648D01*
X90293865Y-76899681D01*
X90381082Y-76728509D01*
X90440447Y-76545801D01*
X90470500Y-76356055D01*
X90470500Y-76163945D01*
X90440447Y-75974199D01*
X90381740Y-75793515D01*
X90381083Y-75791493D01*
X90293864Y-75620318D01*
X90180945Y-75464898D01*
X90045102Y-75329055D01*
X89961604Y-75268390D01*
X89901614Y-75224804D01*
X89858949Y-75169473D01*
X89850500Y-75124486D01*
X89850500Y-74855513D01*
X89870185Y-74788474D01*
X89901614Y-74755195D01*
X89915503Y-74745104D01*
X90045102Y-74650945D01*
X90180945Y-74515102D01*
X90285195Y-74371613D01*
X90340525Y-74328949D01*
X90385513Y-74320500D01*
X92633331Y-74320500D01*
X92633347Y-74320501D01*
X92640943Y-74320501D01*
X92799054Y-74320501D01*
X92799057Y-74320501D01*
X92951785Y-74279577D01*
X93002147Y-74250500D01*
X93088716Y-74200520D01*
X93200520Y-74088716D01*
X93200520Y-74088714D01*
X93210724Y-74078511D01*
X93210728Y-74078506D01*
X96555158Y-70734075D01*
X96616479Y-70700592D01*
X96681151Y-70703825D01*
X96695466Y-70708477D01*
X96897648Y-70740500D01*
X96897649Y-70740500D01*
X97102351Y-70740500D01*
X97102352Y-70740500D01*
X97304534Y-70708477D01*
X97499219Y-70645220D01*
X97681610Y-70552287D01*
X97798883Y-70467084D01*
X97847213Y-70431971D01*
X97847215Y-70431968D01*
X97847219Y-70431966D01*
X97991966Y-70287219D01*
X97991968Y-70287215D01*
X97991971Y-70287213D01*
X98044732Y-70214590D01*
X98112287Y-70121610D01*
X98205220Y-69939219D01*
X98257569Y-69778106D01*
X98297007Y-69720430D01*
X98361365Y-69693232D01*
X98430212Y-69705147D01*
X98481687Y-69752391D01*
X98499500Y-69816424D01*
X98499500Y-76683575D01*
X98479815Y-76750614D01*
X98427011Y-76796369D01*
X98357853Y-76806313D01*
X98294297Y-76777288D01*
X98257569Y-76721894D01*
X98205218Y-76560776D01*
X98148376Y-76449219D01*
X98112287Y-76378390D01*
X98096059Y-76356054D01*
X97991971Y-76212786D01*
X97847213Y-76068028D01*
X97681613Y-75947715D01*
X97681612Y-75947714D01*
X97681610Y-75947713D01*
X97624653Y-75918691D01*
X97499223Y-75854781D01*
X97304534Y-75791522D01*
X97129995Y-75763878D01*
X97102352Y-75759500D01*
X96897648Y-75759500D01*
X96873329Y-75763351D01*
X96695465Y-75791522D01*
X96500776Y-75854781D01*
X96318386Y-75947715D01*
X96152786Y-76068028D01*
X96008028Y-76212786D01*
X95887715Y-76378386D01*
X95794781Y-76560776D01*
X95731522Y-76755465D01*
X95699500Y-76957648D01*
X95699500Y-77162351D01*
X95731522Y-77364534D01*
X95794781Y-77559223D01*
X95887715Y-77741613D01*
X96008028Y-77907213D01*
X96152786Y-78051971D01*
X96263019Y-78132058D01*
X96318390Y-78172287D01*
X96434607Y-78231503D01*
X96500776Y-78265218D01*
X96500778Y-78265218D01*
X96500781Y-78265220D01*
X96604711Y-78298989D01*
X96695465Y-78328477D01*
X96796557Y-78344488D01*
X96897648Y-78360500D01*
X96897649Y-78360500D01*
X97102351Y-78360500D01*
X97102352Y-78360500D01*
X97304534Y-78328477D01*
X97499219Y-78265220D01*
X97681610Y-78172287D01*
X97813645Y-78076359D01*
X97847213Y-78051971D01*
X97847215Y-78051968D01*
X97847219Y-78051966D01*
X97991966Y-77907219D01*
X97991968Y-77907215D01*
X97991971Y-77907213D01*
X98076556Y-77790790D01*
X98112287Y-77741610D01*
X98205220Y-77559219D01*
X98257569Y-77398106D01*
X98297007Y-77340430D01*
X98361365Y-77313232D01*
X98430212Y-77325147D01*
X98481687Y-77372391D01*
X98499500Y-77436424D01*
X98499500Y-85063575D01*
X98479815Y-85130614D01*
X98427011Y-85176369D01*
X98357853Y-85186313D01*
X98294297Y-85157288D01*
X98257569Y-85101894D01*
X98235453Y-85033828D01*
X98205220Y-84940781D01*
X98205218Y-84940778D01*
X98205218Y-84940776D01*
X98153093Y-84838476D01*
X98112287Y-84758390D01*
X98104556Y-84747749D01*
X97991971Y-84592786D01*
X97847213Y-84448028D01*
X97681613Y-84327715D01*
X97681612Y-84327714D01*
X97681610Y-84327713D01*
X97624653Y-84298691D01*
X97499223Y-84234781D01*
X97304534Y-84171522D01*
X97129995Y-84143878D01*
X97102352Y-84139500D01*
X96897648Y-84139500D01*
X96873329Y-84143351D01*
X96695465Y-84171522D01*
X96500776Y-84234781D01*
X96318386Y-84327715D01*
X96152786Y-84448028D01*
X96008028Y-84592786D01*
X95887715Y-84758386D01*
X95794781Y-84940776D01*
X95731522Y-85135465D01*
X95699500Y-85337648D01*
X95699500Y-85542351D01*
X95731522Y-85744534D01*
X95794781Y-85939223D01*
X95887715Y-86121613D01*
X96008028Y-86287213D01*
X96152786Y-86431971D01*
X96307749Y-86544556D01*
X96318390Y-86552287D01*
X96434607Y-86611503D01*
X96500776Y-86645218D01*
X96500778Y-86645218D01*
X96500781Y-86645220D01*
X96605137Y-86679127D01*
X96695465Y-86708477D01*
X96796557Y-86724488D01*
X96897648Y-86740500D01*
X96897649Y-86740500D01*
X97102351Y-86740500D01*
X97102352Y-86740500D01*
X97304534Y-86708477D01*
X97499219Y-86645220D01*
X97681610Y-86552287D01*
X97826060Y-86447339D01*
X97847213Y-86431971D01*
X97847215Y-86431968D01*
X97847219Y-86431966D01*
X97991966Y-86287219D01*
X97991968Y-86287215D01*
X97991971Y-86287213D01*
X98044732Y-86214590D01*
X98112287Y-86121610D01*
X98205220Y-85939219D01*
X98257569Y-85778106D01*
X98297007Y-85720430D01*
X98361365Y-85693232D01*
X98430212Y-85705147D01*
X98481687Y-85752391D01*
X98499500Y-85816424D01*
X98499500Y-92683575D01*
X98479815Y-92750614D01*
X98427011Y-92796369D01*
X98357853Y-92806313D01*
X98294297Y-92777288D01*
X98257569Y-92721894D01*
X98205218Y-92560776D01*
X98171503Y-92494607D01*
X98112287Y-92378390D01*
X98104556Y-92367749D01*
X97991971Y-92212786D01*
X97847213Y-92068028D01*
X97681613Y-91947715D01*
X97681612Y-91947714D01*
X97681610Y-91947713D01*
X97624653Y-91918691D01*
X97499223Y-91854781D01*
X97304534Y-91791522D01*
X97129995Y-91763878D01*
X97102352Y-91759500D01*
X96897648Y-91759500D01*
X96873329Y-91763351D01*
X96695465Y-91791522D01*
X96500776Y-91854781D01*
X96318386Y-91947715D01*
X96152786Y-92068028D01*
X96008028Y-92212786D01*
X95887715Y-92378386D01*
X95794781Y-92560776D01*
X95731522Y-92755465D01*
X95699500Y-92957648D01*
X95699500Y-93162351D01*
X95731522Y-93364534D01*
X95794781Y-93559223D01*
X95887715Y-93741613D01*
X96008028Y-93907213D01*
X96152786Y-94051971D01*
X96307749Y-94164556D01*
X96318390Y-94172287D01*
X96434607Y-94231503D01*
X96500776Y-94265218D01*
X96500778Y-94265218D01*
X96500781Y-94265220D01*
X96605137Y-94299127D01*
X96695465Y-94328477D01*
X96796557Y-94344488D01*
X96897648Y-94360500D01*
X96897649Y-94360500D01*
X97102351Y-94360500D01*
X97102352Y-94360500D01*
X97304534Y-94328477D01*
X97499219Y-94265220D01*
X97681610Y-94172287D01*
X97774590Y-94104732D01*
X97847213Y-94051971D01*
X97847215Y-94051968D01*
X97847219Y-94051966D01*
X97991966Y-93907219D01*
X97991968Y-93907215D01*
X97991971Y-93907213D01*
X98044732Y-93834590D01*
X98112287Y-93741610D01*
X98205220Y-93559219D01*
X98257569Y-93398106D01*
X98297007Y-93340430D01*
X98361365Y-93313232D01*
X98430212Y-93325147D01*
X98481687Y-93372391D01*
X98499500Y-93436424D01*
X98499500Y-116875500D01*
X98479815Y-116942539D01*
X98427011Y-116988294D01*
X98375500Y-116999500D01*
X90480656Y-116999500D01*
X90413617Y-116979815D01*
X90367862Y-116927011D01*
X90357918Y-116857853D01*
X90386943Y-116794297D01*
X90410893Y-116774996D01*
X90410231Y-116774112D01*
X90490136Y-116714293D01*
X90532546Y-116682546D01*
X90618796Y-116567331D01*
X90669091Y-116432483D01*
X90675500Y-116372873D01*
X90675499Y-114577128D01*
X90669091Y-114517517D01*
X90667810Y-114514083D01*
X90618797Y-114382671D01*
X90618793Y-114382664D01*
X90532547Y-114267455D01*
X90532544Y-114267452D01*
X90417335Y-114181206D01*
X90417328Y-114181202D01*
X90282482Y-114130908D01*
X90282483Y-114130908D01*
X90222883Y-114124501D01*
X90222881Y-114124500D01*
X90222873Y-114124500D01*
X90222864Y-114124500D01*
X88427129Y-114124500D01*
X88427123Y-114124501D01*
X88367516Y-114130908D01*
X88232671Y-114181202D01*
X88232664Y-114181206D01*
X88117455Y-114267452D01*
X88117452Y-114267455D01*
X88031206Y-114382664D01*
X88031203Y-114382669D01*
X87982189Y-114514083D01*
X87940317Y-114570016D01*
X87874853Y-114594433D01*
X87806580Y-114579581D01*
X87778326Y-114558430D01*
X87664786Y-114444890D01*
X87492815Y-114319948D01*
X87492814Y-114319947D01*
X87453205Y-114299765D01*
X87402409Y-114251791D01*
X87385500Y-114189281D01*
X87385500Y-113015096D01*
X87405185Y-112948057D01*
X87421814Y-112927420D01*
X92172416Y-108176817D01*
X92233739Y-108143333D01*
X92260097Y-108140499D01*
X93397502Y-108140499D01*
X93397508Y-108140499D01*
X93500297Y-108129999D01*
X93666834Y-108074814D01*
X93816156Y-107982712D01*
X93940212Y-107858656D01*
X94032314Y-107709334D01*
X94035812Y-107698775D01*
X94075582Y-107641332D01*
X94140098Y-107614507D01*
X94208874Y-107626821D01*
X94253834Y-107664891D01*
X94257390Y-107669785D01*
X94257394Y-107669790D01*
X94407713Y-107820109D01*
X94579679Y-107945048D01*
X94579681Y-107945049D01*
X94579684Y-107945051D01*
X94769088Y-108041557D01*
X94971257Y-108107246D01*
X95181213Y-108140500D01*
X95181214Y-108140500D01*
X95393786Y-108140500D01*
X95393787Y-108140500D01*
X95603743Y-108107246D01*
X95805912Y-108041557D01*
X95995316Y-107945051D01*
X96017289Y-107929086D01*
X96167286Y-107820109D01*
X96167288Y-107820106D01*
X96167292Y-107820104D01*
X96317604Y-107669792D01*
X96317606Y-107669788D01*
X96317609Y-107669786D01*
X96442548Y-107497820D01*
X96442547Y-107497820D01*
X96442551Y-107497816D01*
X96539057Y-107308412D01*
X96604746Y-107106243D01*
X96638000Y-106896287D01*
X96638000Y-106683713D01*
X96604746Y-106473757D01*
X96539057Y-106271588D01*
X96442551Y-106082184D01*
X96442549Y-106082181D01*
X96442548Y-106082179D01*
X96317609Y-105910213D01*
X96167286Y-105759890D01*
X95995320Y-105634951D01*
X95994615Y-105634591D01*
X95986554Y-105630485D01*
X95935759Y-105582512D01*
X95918963Y-105514692D01*
X95941499Y-105448556D01*
X95986554Y-105409515D01*
X95995316Y-105405051D01*
X96017289Y-105389086D01*
X96167286Y-105280109D01*
X96167288Y-105280106D01*
X96167292Y-105280104D01*
X96317604Y-105129792D01*
X96317606Y-105129788D01*
X96317609Y-105129786D01*
X96442548Y-104957820D01*
X96442547Y-104957820D01*
X96442551Y-104957816D01*
X96539057Y-104768412D01*
X96604746Y-104566243D01*
X96638000Y-104356287D01*
X96638000Y-104143713D01*
X96604746Y-103933757D01*
X96539057Y-103731588D01*
X96442551Y-103542184D01*
X96442549Y-103542181D01*
X96442548Y-103542179D01*
X96317609Y-103370213D01*
X96167286Y-103219890D01*
X95995317Y-103094949D01*
X95986004Y-103090204D01*
X95935207Y-103042230D01*
X95918412Y-102974409D01*
X95940949Y-102908274D01*
X95986007Y-102869232D01*
X95995055Y-102864622D01*
X96049216Y-102825270D01*
X96049217Y-102825270D01*
X95416908Y-102192962D01*
X95480493Y-102175925D01*
X95594507Y-102110099D01*
X95687599Y-102017007D01*
X95753425Y-101902993D01*
X95770462Y-101839409D01*
X96402770Y-102471717D01*
X96402770Y-102471716D01*
X96442122Y-102417554D01*
X96538595Y-102228217D01*
X96604257Y-102026130D01*
X96604257Y-102026127D01*
X96637500Y-101816246D01*
X96637500Y-101603753D01*
X96604257Y-101393872D01*
X96604257Y-101393869D01*
X96538595Y-101191782D01*
X96442124Y-101002449D01*
X96402770Y-100948282D01*
X96402769Y-100948282D01*
X95770462Y-101580590D01*
X95753425Y-101517007D01*
X95687599Y-101402993D01*
X95594507Y-101309901D01*
X95480493Y-101244075D01*
X95416909Y-101227037D01*
X96049216Y-100594728D01*
X95995050Y-100555375D01*
X95805717Y-100458904D01*
X95603629Y-100393242D01*
X95393746Y-100360000D01*
X95181254Y-100360000D01*
X94971372Y-100393242D01*
X94971369Y-100393242D01*
X94769282Y-100458904D01*
X94579939Y-100555380D01*
X94525782Y-100594727D01*
X94525782Y-100594728D01*
X95158091Y-101227037D01*
X95094507Y-101244075D01*
X94980493Y-101309901D01*
X94887401Y-101402993D01*
X94821575Y-101517007D01*
X94804537Y-101580591D01*
X94172228Y-100948282D01*
X94172227Y-100948282D01*
X94132880Y-101002440D01*
X94127983Y-101012051D01*
X94080006Y-101062845D01*
X94012184Y-101079638D01*
X93946050Y-101057098D01*
X93907016Y-101012048D01*
X93902126Y-101002452D01*
X93862770Y-100948282D01*
X93862769Y-100948282D01*
X93230462Y-101580590D01*
X93213425Y-101517007D01*
X93147599Y-101402993D01*
X93054507Y-101309901D01*
X92940493Y-101244075D01*
X92876909Y-101227037D01*
X93509216Y-100594728D01*
X93455050Y-100555375D01*
X93265717Y-100458904D01*
X93063629Y-100393242D01*
X92853746Y-100360000D01*
X92641254Y-100360000D01*
X92431372Y-100393242D01*
X92431369Y-100393242D01*
X92229282Y-100458904D01*
X92039939Y-100555380D01*
X91985782Y-100594727D01*
X91985782Y-100594728D01*
X92618091Y-101227037D01*
X92554507Y-101244075D01*
X92440493Y-101309901D01*
X92347401Y-101402993D01*
X92281575Y-101517007D01*
X92264537Y-101580591D01*
X91632228Y-100948282D01*
X91632227Y-100948282D01*
X91592880Y-101002439D01*
X91496404Y-101191782D01*
X91430742Y-101393869D01*
X91430742Y-101393872D01*
X91397500Y-101603753D01*
X91397500Y-101816246D01*
X91430742Y-102026127D01*
X91430742Y-102026130D01*
X91496404Y-102228217D01*
X91592875Y-102417550D01*
X91632228Y-102471716D01*
X92264537Y-101839408D01*
X92281575Y-101902993D01*
X92347401Y-102017007D01*
X92440493Y-102110099D01*
X92554507Y-102175925D01*
X92618090Y-102192962D01*
X91985782Y-102825269D01*
X91985782Y-102825270D01*
X92039952Y-102864626D01*
X92039951Y-102864626D01*
X92048995Y-102869234D01*
X92099792Y-102917208D01*
X92116587Y-102985029D01*
X92094050Y-103051164D01*
X92048999Y-103090202D01*
X92039682Y-103094949D01*
X91867713Y-103219890D01*
X91717390Y-103370213D01*
X91592451Y-103542179D01*
X91495944Y-103731585D01*
X91430253Y-103933760D01*
X91397000Y-104143713D01*
X91397000Y-104356286D01*
X91430254Y-104566244D01*
X91430254Y-104566247D01*
X91443991Y-104608523D01*
X91445986Y-104678364D01*
X91413741Y-104734522D01*
X90881286Y-105266978D01*
X90769481Y-105378782D01*
X90769475Y-105378790D01*
X90728363Y-105450000D01*
X90728363Y-105450001D01*
X90724039Y-105457491D01*
X90691014Y-105514692D01*
X90690423Y-105515715D01*
X90649499Y-105668443D01*
X90649499Y-105668445D01*
X90649499Y-105836546D01*
X90649500Y-105836559D01*
X90649500Y-107199902D01*
X90629815Y-107266941D01*
X90613181Y-107287583D01*
X84212584Y-113688181D01*
X84151261Y-113721666D01*
X84124903Y-113724500D01*
X82941670Y-113724500D01*
X82941654Y-113724499D01*
X82934058Y-113724499D01*
X82775943Y-113724499D01*
X82699579Y-113744961D01*
X82623214Y-113765423D01*
X82623209Y-113765426D01*
X82486290Y-113844475D01*
X82486282Y-113844481D01*
X82189522Y-114141241D01*
X82128199Y-114174726D01*
X82063523Y-114171491D01*
X82021245Y-114157754D01*
X81881272Y-114135584D01*
X81811287Y-114124500D01*
X81598713Y-114124500D01*
X81550042Y-114132208D01*
X81388760Y-114157753D01*
X81186585Y-114223444D01*
X80997179Y-114319951D01*
X80825213Y-114444890D01*
X80674890Y-114595213D01*
X80549949Y-114767182D01*
X80545202Y-114776499D01*
X80497227Y-114827293D01*
X80429405Y-114844087D01*
X80363271Y-114821548D01*
X80324234Y-114776495D01*
X80319622Y-114767444D01*
X80194727Y-114595540D01*
X80194723Y-114595535D01*
X80044464Y-114445276D01*
X80044459Y-114445272D01*
X79872557Y-114320379D01*
X79683215Y-114223903D01*
X79481124Y-114158241D01*
X79415000Y-114147768D01*
X79415000Y-115041988D01*
X79357993Y-115009075D01*
X79230826Y-114975000D01*
X79099174Y-114975000D01*
X78972007Y-115009075D01*
X78915000Y-115041988D01*
X78915000Y-114147768D01*
X78914999Y-114147768D01*
X78848875Y-114158241D01*
X78646784Y-114223903D01*
X78457442Y-114320379D01*
X78285540Y-114445272D01*
X78285535Y-114445276D01*
X78135276Y-114595535D01*
X78135272Y-114595540D01*
X78010377Y-114767444D01*
X78005484Y-114777048D01*
X77957509Y-114827844D01*
X77889688Y-114844638D01*
X77823553Y-114822100D01*
X77784516Y-114777048D01*
X77779622Y-114767444D01*
X77654727Y-114595540D01*
X77654723Y-114595535D01*
X77504464Y-114445276D01*
X77504459Y-114445272D01*
X77332557Y-114320379D01*
X77143215Y-114223903D01*
X76941124Y-114158241D01*
X76875000Y-114147768D01*
X76875000Y-115041988D01*
X76817993Y-115009075D01*
X76690826Y-114975000D01*
X76559174Y-114975000D01*
X76432007Y-115009075D01*
X76375000Y-115041988D01*
X76375000Y-114147768D01*
X76374999Y-114147768D01*
X76308875Y-114158241D01*
X76106784Y-114223903D01*
X75917442Y-114320379D01*
X75745540Y-114445272D01*
X75745535Y-114445276D01*
X75595276Y-114595535D01*
X75595272Y-114595540D01*
X75470379Y-114767442D01*
X75373904Y-114956782D01*
X75308242Y-115158870D01*
X75308242Y-115158873D01*
X75297769Y-115225000D01*
X76191988Y-115225000D01*
X76159075Y-115282007D01*
X76125000Y-115409174D01*
X76125000Y-115540826D01*
X76159075Y-115667993D01*
X76191988Y-115725000D01*
X75297769Y-115725000D01*
X75308242Y-115791126D01*
X75308242Y-115791129D01*
X75373904Y-115993217D01*
X75438099Y-116119205D01*
X75450995Y-116187874D01*
X75424719Y-116252614D01*
X75367613Y-116292872D01*
X75327614Y-116299500D01*
X74890097Y-116299500D01*
X74823058Y-116279815D01*
X74802416Y-116263181D01*
X73794077Y-115254842D01*
X73760592Y-115193519D01*
X73763828Y-115128841D01*
X73768477Y-115114534D01*
X73800500Y-114912352D01*
X73800500Y-114707648D01*
X73780216Y-114579581D01*
X73768477Y-114505465D01*
X73725107Y-114371988D01*
X73705220Y-114310781D01*
X73705218Y-114310778D01*
X73705218Y-114310776D01*
X73660953Y-114223903D01*
X73612287Y-114128390D01*
X73581126Y-114085500D01*
X73491971Y-113962786D01*
X73347213Y-113818028D01*
X73181613Y-113697715D01*
X73181612Y-113697714D01*
X73181610Y-113697713D01*
X73124653Y-113668691D01*
X72999223Y-113604781D01*
X72804534Y-113541522D01*
X72629995Y-113513878D01*
X72602352Y-113509500D01*
X72397648Y-113509500D01*
X72373329Y-113513351D01*
X72195465Y-113541522D01*
X72000776Y-113604781D01*
X71818386Y-113697715D01*
X71652786Y-113818028D01*
X71508028Y-113962786D01*
X71387715Y-114128385D01*
X71380883Y-114141795D01*
X71332909Y-114192591D01*
X71270398Y-114209500D01*
X70674499Y-114209500D01*
X70607460Y-114189815D01*
X70561705Y-114137011D01*
X70550499Y-114085500D01*
X70550499Y-113962129D01*
X70550498Y-113962123D01*
X70550497Y-113962116D01*
X70544091Y-113902517D01*
X70493796Y-113767669D01*
X70493795Y-113767668D01*
X70493793Y-113767664D01*
X70407547Y-113652455D01*
X70407544Y-113652452D01*
X70292335Y-113566206D01*
X70292328Y-113566202D01*
X70157482Y-113515908D01*
X70157483Y-113515908D01*
X70097883Y-113509501D01*
X70097881Y-113509500D01*
X70097873Y-113509500D01*
X70097864Y-113509500D01*
X68402129Y-113509500D01*
X68402123Y-113509501D01*
X68342516Y-113515908D01*
X68207671Y-113566202D01*
X68207664Y-113566206D01*
X68092455Y-113652452D01*
X68092452Y-113652455D01*
X68006206Y-113767664D01*
X68006202Y-113767671D01*
X67955908Y-113902517D01*
X67949501Y-113962116D01*
X67949501Y-113962123D01*
X67949500Y-113962135D01*
X67949500Y-115657870D01*
X67949501Y-115657876D01*
X67955908Y-115717483D01*
X68006202Y-115852328D01*
X68006206Y-115852335D01*
X68092452Y-115967544D01*
X68092455Y-115967547D01*
X68207664Y-116053793D01*
X68207671Y-116053797D01*
X68342517Y-116104091D01*
X68342516Y-116104091D01*
X68349444Y-116104835D01*
X68402127Y-116110500D01*
X70097872Y-116110499D01*
X70157483Y-116104091D01*
X70292331Y-116053796D01*
X70407546Y-115967546D01*
X70493796Y-115852331D01*
X70544091Y-115717483D01*
X70550500Y-115657873D01*
X70550500Y-115534500D01*
X70570185Y-115467461D01*
X70622989Y-115421706D01*
X70674500Y-115410500D01*
X71270398Y-115410500D01*
X71337437Y-115430185D01*
X71380883Y-115478205D01*
X71387715Y-115491614D01*
X71508028Y-115657213D01*
X71652786Y-115801971D01*
X71807749Y-115914556D01*
X71818390Y-115922287D01*
X71907212Y-115967544D01*
X72000776Y-116015218D01*
X72000778Y-116015218D01*
X72000781Y-116015220D01*
X72105137Y-116049127D01*
X72195465Y-116078477D01*
X72296557Y-116094488D01*
X72397648Y-116110500D01*
X72397649Y-116110500D01*
X72602351Y-116110500D01*
X72602352Y-116110500D01*
X72804534Y-116078477D01*
X72818842Y-116073827D01*
X72888682Y-116071831D01*
X72944842Y-116104077D01*
X73628584Y-116787819D01*
X73662069Y-116849142D01*
X73657085Y-116918834D01*
X73615213Y-116974767D01*
X73549749Y-116999184D01*
X73540903Y-116999500D01*
X67624500Y-116999500D01*
X67557461Y-116979815D01*
X67511706Y-116927011D01*
X67500500Y-116875500D01*
X67500500Y-106940000D01*
X67973391Y-106940000D01*
X68934314Y-106940000D01*
X68929920Y-106944394D01*
X68877259Y-107035606D01*
X68850000Y-107137339D01*
X68850000Y-107242661D01*
X68877259Y-107344394D01*
X68929920Y-107435606D01*
X68934314Y-107440000D01*
X67973391Y-107440000D01*
X67982009Y-107494413D01*
X68045244Y-107689029D01*
X68138140Y-107871349D01*
X68258417Y-108036894D01*
X68258417Y-108036895D01*
X68403104Y-108181582D01*
X68568650Y-108301859D01*
X68750968Y-108394754D01*
X68945578Y-108457988D01*
X69000000Y-108466607D01*
X69000000Y-107505686D01*
X69004394Y-107510080D01*
X69095606Y-107562741D01*
X69197339Y-107590000D01*
X69302661Y-107590000D01*
X69404394Y-107562741D01*
X69495606Y-107510080D01*
X69500000Y-107505686D01*
X69500000Y-108466606D01*
X69554421Y-108457988D01*
X69749031Y-108394754D01*
X69931349Y-108301859D01*
X70096894Y-108181582D01*
X70096895Y-108181582D01*
X70241582Y-108036895D01*
X70241582Y-108036894D01*
X70361859Y-107871349D01*
X70454755Y-107689029D01*
X70517990Y-107494413D01*
X70526609Y-107440000D01*
X69565686Y-107440000D01*
X69570080Y-107435606D01*
X69622741Y-107344394D01*
X69650000Y-107242661D01*
X69650000Y-107137339D01*
X69622741Y-107035606D01*
X69570080Y-106944394D01*
X69565686Y-106940000D01*
X70526609Y-106940000D01*
X70517990Y-106885586D01*
X70454755Y-106690970D01*
X70361859Y-106508650D01*
X70241582Y-106343105D01*
X70241582Y-106343104D01*
X70096895Y-106198417D01*
X69931349Y-106078140D01*
X69749029Y-105985244D01*
X69554413Y-105922009D01*
X69500000Y-105913390D01*
X69500000Y-106874314D01*
X69495606Y-106869920D01*
X69404394Y-106817259D01*
X69302661Y-106790000D01*
X69197339Y-106790000D01*
X69095606Y-106817259D01*
X69004394Y-106869920D01*
X69000000Y-106874314D01*
X69000000Y-105913390D01*
X68945586Y-105922009D01*
X68750970Y-105985244D01*
X68568650Y-106078140D01*
X68403105Y-106198417D01*
X68403104Y-106198417D01*
X68258417Y-106343104D01*
X68258417Y-106343105D01*
X68138140Y-106508650D01*
X68045244Y-106690970D01*
X67982009Y-106885586D01*
X67973391Y-106940000D01*
X67500500Y-106940000D01*
X67500500Y-84471258D01*
X67520185Y-84404219D01*
X67572989Y-84358464D01*
X67642147Y-84348520D01*
X67705703Y-84377545D01*
X67734985Y-84414963D01*
X67820379Y-84582557D01*
X67945272Y-84754459D01*
X67945276Y-84754464D01*
X68095535Y-84904723D01*
X68095540Y-84904727D01*
X68267442Y-85029620D01*
X68456782Y-85126095D01*
X68658871Y-85191757D01*
X68725000Y-85202231D01*
X68725000Y-84308012D01*
X68782007Y-84340925D01*
X68909174Y-84375000D01*
X69040826Y-84375000D01*
X69167993Y-84340925D01*
X69225000Y-84308012D01*
X69225000Y-85202230D01*
X69291126Y-85191757D01*
X69291129Y-85191757D01*
X69493217Y-85126095D01*
X69682557Y-85029620D01*
X69854459Y-84904727D01*
X69854464Y-84904723D01*
X70004723Y-84754464D01*
X70004727Y-84754459D01*
X70129620Y-84582557D01*
X70226095Y-84393217D01*
X70291757Y-84191129D01*
X70291757Y-84191126D01*
X70302231Y-84125000D01*
X69408012Y-84125000D01*
X69440925Y-84067993D01*
X69475000Y-83940826D01*
X69475000Y-83809174D01*
X69440925Y-83682007D01*
X69408012Y-83625000D01*
X70302231Y-83625000D01*
X70291757Y-83558873D01*
X70291757Y-83558870D01*
X70226095Y-83356782D01*
X70129620Y-83167442D01*
X70004727Y-82995540D01*
X70004723Y-82995535D01*
X69854464Y-82845276D01*
X69854459Y-82845272D01*
X69682558Y-82720379D01*
X69672954Y-82715486D01*
X69622157Y-82667512D01*
X69605361Y-82599692D01*
X69627897Y-82533556D01*
X69672954Y-82494514D01*
X69682558Y-82489620D01*
X69854459Y-82364727D01*
X69854464Y-82364723D01*
X70004723Y-82214464D01*
X70004727Y-82214459D01*
X70129620Y-82042557D01*
X70226095Y-81853217D01*
X70291757Y-81651129D01*
X70291757Y-81651126D01*
X70302231Y-81585000D01*
X69408012Y-81585000D01*
X69440925Y-81527993D01*
X69475000Y-81400826D01*
X69475000Y-81269174D01*
X69440925Y-81142007D01*
X69408012Y-81085000D01*
X70302231Y-81085000D01*
X70291757Y-81018873D01*
X70291757Y-81018870D01*
X70226095Y-80816782D01*
X70129620Y-80627442D01*
X70004727Y-80455540D01*
X70004723Y-80455535D01*
X69854464Y-80305276D01*
X69854459Y-80305272D01*
X69682555Y-80180377D01*
X69673500Y-80175763D01*
X69622706Y-80127788D01*
X69605912Y-80059966D01*
X69628451Y-79993832D01*
X69673508Y-79954793D01*
X69682816Y-79950051D01*
X69828970Y-79843865D01*
X69854786Y-79825109D01*
X69854788Y-79825106D01*
X69854792Y-79825104D01*
X70005104Y-79674792D01*
X70005106Y-79674788D01*
X70005109Y-79674786D01*
X70130048Y-79502820D01*
X70130047Y-79502820D01*
X70130051Y-79502816D01*
X70226557Y-79313412D01*
X70292246Y-79111243D01*
X70325500Y-78901287D01*
X70325500Y-78688713D01*
X70292246Y-78478757D01*
X70226557Y-78276588D01*
X70130051Y-78087184D01*
X70130049Y-78087181D01*
X70130048Y-78087179D01*
X70005109Y-77915213D01*
X69854786Y-77764890D01*
X69682820Y-77639951D01*
X69682115Y-77639591D01*
X69674054Y-77635485D01*
X69623259Y-77587512D01*
X69606463Y-77519692D01*
X69628999Y-77453556D01*
X69674054Y-77414515D01*
X69682816Y-77410051D01*
X69792330Y-77330485D01*
X69854786Y-77285109D01*
X69854788Y-77285106D01*
X69854792Y-77285104D01*
X70005104Y-77134792D01*
X70005106Y-77134788D01*
X70005109Y-77134786D01*
X70130048Y-76962820D01*
X70130047Y-76962820D01*
X70130051Y-76962816D01*
X70226557Y-76773412D01*
X70292246Y-76571243D01*
X70325500Y-76361287D01*
X70325500Y-76148713D01*
X70292246Y-75938757D01*
X70226557Y-75736588D01*
X70130051Y-75547184D01*
X70130049Y-75547181D01*
X70130048Y-75547179D01*
X70005109Y-75375213D01*
X69854786Y-75224890D01*
X69682820Y-75099951D01*
X69682115Y-75099591D01*
X69674054Y-75095485D01*
X69623259Y-75047512D01*
X69606463Y-74979692D01*
X69628999Y-74913556D01*
X69674054Y-74874515D01*
X69682816Y-74870051D01*
X69769201Y-74807289D01*
X69854786Y-74745109D01*
X69854788Y-74745106D01*
X69854792Y-74745104D01*
X70005104Y-74594792D01*
X70005106Y-74594788D01*
X70005109Y-74594786D01*
X70130048Y-74422820D01*
X70130047Y-74422820D01*
X70130051Y-74422816D01*
X70226557Y-74233412D01*
X70292246Y-74031243D01*
X70325500Y-73821287D01*
X70325500Y-73608713D01*
X70292246Y-73398757D01*
X70226557Y-73196588D01*
X70130051Y-73007184D01*
X70130049Y-73007181D01*
X70130048Y-73007179D01*
X70005109Y-72835213D01*
X69891569Y-72721673D01*
X69858084Y-72660350D01*
X69863068Y-72590658D01*
X69904940Y-72534725D01*
X69935915Y-72517810D01*
X70067331Y-72468796D01*
X70182546Y-72382546D01*
X70268796Y-72267331D01*
X70319091Y-72132483D01*
X70325500Y-72072873D01*
X70325499Y-70277128D01*
X70319091Y-70217517D01*
X70318497Y-70215925D01*
X70268797Y-70082671D01*
X70268793Y-70082664D01*
X70182547Y-69967455D01*
X70182544Y-69967452D01*
X70067335Y-69881206D01*
X70067328Y-69881202D01*
X69932482Y-69830908D01*
X69932483Y-69830908D01*
X69872883Y-69824501D01*
X69872881Y-69824500D01*
X69872873Y-69824500D01*
X69872864Y-69824500D01*
X68077129Y-69824500D01*
X68077123Y-69824501D01*
X68017516Y-69830908D01*
X67882671Y-69881202D01*
X67882664Y-69881206D01*
X67767455Y-69967452D01*
X67723766Y-70025813D01*
X67667832Y-70067683D01*
X67598140Y-70072667D01*
X67536817Y-70039181D01*
X67503333Y-69977857D01*
X67500500Y-69951501D01*
X67500500Y-64647682D01*
X68450000Y-64647682D01*
X68450000Y-64852317D01*
X68482009Y-65054417D01*
X68545244Y-65249031D01*
X68638141Y-65431350D01*
X68638147Y-65431359D01*
X68670523Y-65475921D01*
X68670524Y-65475922D01*
X69350000Y-64796446D01*
X69350000Y-64802661D01*
X69377259Y-64904394D01*
X69429920Y-64995606D01*
X69504394Y-65070080D01*
X69595606Y-65122741D01*
X69697339Y-65150000D01*
X69703553Y-65150000D01*
X69024076Y-65829474D01*
X69068650Y-65861859D01*
X69250968Y-65954755D01*
X69445582Y-66017990D01*
X69647683Y-66050000D01*
X69852317Y-66050000D01*
X70054417Y-66017990D01*
X70249031Y-65954755D01*
X70431349Y-65861859D01*
X70475921Y-65829474D01*
X69796447Y-65150000D01*
X69802661Y-65150000D01*
X69904394Y-65122741D01*
X69995606Y-65070080D01*
X70070080Y-64995606D01*
X70122741Y-64904394D01*
X70150000Y-64802661D01*
X70150000Y-64796447D01*
X70829474Y-65475921D01*
X70861859Y-65431349D01*
X70954755Y-65249031D01*
X71017990Y-65054417D01*
X71050000Y-64852317D01*
X71050000Y-64647682D01*
X71017990Y-64445582D01*
X70954755Y-64250968D01*
X70861859Y-64068650D01*
X70829474Y-64024077D01*
X70829474Y-64024076D01*
X70150000Y-64703551D01*
X70150000Y-64697339D01*
X70122741Y-64595606D01*
X70070080Y-64504394D01*
X69995606Y-64429920D01*
X69904394Y-64377259D01*
X69802661Y-64350000D01*
X69796446Y-64350000D01*
X70475922Y-63670524D01*
X70475921Y-63670523D01*
X70431359Y-63638147D01*
X70431350Y-63638141D01*
X70249031Y-63545244D01*
X70054417Y-63482009D01*
X69852317Y-63450000D01*
X69647683Y-63450000D01*
X69445582Y-63482009D01*
X69250968Y-63545244D01*
X69068644Y-63638143D01*
X69024077Y-63670523D01*
X69024077Y-63670524D01*
X69703554Y-64350000D01*
X69697339Y-64350000D01*
X69595606Y-64377259D01*
X69504394Y-64429920D01*
X69429920Y-64504394D01*
X69377259Y-64595606D01*
X69350000Y-64697339D01*
X69350000Y-64703553D01*
X68670524Y-64024077D01*
X68670523Y-64024077D01*
X68638143Y-64068644D01*
X68545244Y-64250968D01*
X68482009Y-64445582D01*
X68450000Y-64647682D01*
X67500500Y-64647682D01*
X67500500Y-53932135D01*
X68149500Y-53932135D01*
X68149500Y-56227870D01*
X68149501Y-56227876D01*
X68155908Y-56287483D01*
X68206202Y-56422328D01*
X68206206Y-56422335D01*
X68292452Y-56537544D01*
X68292455Y-56537547D01*
X68407664Y-56623793D01*
X68407671Y-56623797D01*
X68452618Y-56640561D01*
X68542517Y-56674091D01*
X68602127Y-56680500D01*
X68625497Y-56680499D01*
X68692536Y-56700181D01*
X68738292Y-56752983D01*
X68749500Y-56804499D01*
X68749500Y-58874237D01*
X68729815Y-58941276D01*
X68725818Y-58947122D01*
X68637715Y-59068386D01*
X68544781Y-59250776D01*
X68481522Y-59445465D01*
X68449500Y-59647648D01*
X68449500Y-59852351D01*
X68481522Y-60054534D01*
X68544781Y-60249223D01*
X68637715Y-60431613D01*
X68758028Y-60597213D01*
X68902786Y-60741971D01*
X69057749Y-60854556D01*
X69068390Y-60862287D01*
X69182684Y-60920523D01*
X69250776Y-60955218D01*
X69250778Y-60955218D01*
X69250781Y-60955220D01*
X69355137Y-60989127D01*
X69445465Y-61018477D01*
X69522966Y-61030751D01*
X69593513Y-61041925D01*
X69656648Y-61071854D01*
X69661797Y-61076717D01*
X72713181Y-64128101D01*
X72746666Y-64189424D01*
X72749500Y-64215782D01*
X72749500Y-69348544D01*
X72783249Y-69518212D01*
X72787948Y-69541831D01*
X72787950Y-69541839D01*
X72863364Y-69723907D01*
X72863371Y-69723920D01*
X72972860Y-69887781D01*
X72972863Y-69887785D01*
X73116537Y-70031459D01*
X73116559Y-70031479D01*
X76173281Y-73088201D01*
X76206766Y-73149524D01*
X76208073Y-73156483D01*
X76231523Y-73304535D01*
X76294781Y-73499223D01*
X76350570Y-73608713D01*
X76387713Y-73681610D01*
X76475819Y-73802877D01*
X76499298Y-73868681D01*
X76499500Y-73875761D01*
X76499500Y-74164217D01*
X76479815Y-74231256D01*
X76463181Y-74251898D01*
X76091797Y-74623281D01*
X76030474Y-74656766D01*
X76023515Y-74658073D01*
X75875468Y-74681522D01*
X75680778Y-74744781D01*
X75498386Y-74837715D01*
X75332786Y-74958028D01*
X75188028Y-75102786D01*
X75067715Y-75268386D01*
X74974781Y-75450778D01*
X74911522Y-75645468D01*
X74888073Y-75793515D01*
X74858143Y-75856649D01*
X74853281Y-75861797D01*
X73350545Y-77364534D01*
X71862221Y-78852858D01*
X71862218Y-78852861D01*
X71819025Y-78896054D01*
X71722859Y-78992219D01*
X71613371Y-79156079D01*
X71613364Y-79156092D01*
X71564594Y-79273834D01*
X71564590Y-79273844D01*
X71561826Y-79280520D01*
X71537949Y-79338164D01*
X71519128Y-79432782D01*
X71518160Y-79437643D01*
X71518160Y-79437647D01*
X71499500Y-79531457D01*
X71499500Y-106314237D01*
X71479815Y-106381276D01*
X71475818Y-106387122D01*
X71387715Y-106508386D01*
X71294781Y-106690776D01*
X71231522Y-106885465D01*
X71199500Y-107087648D01*
X71199500Y-107292351D01*
X71231522Y-107494534D01*
X71294781Y-107689223D01*
X71387715Y-107871613D01*
X71508028Y-108037213D01*
X71652786Y-108181971D01*
X71807749Y-108294556D01*
X71818390Y-108302287D01*
X71934607Y-108361503D01*
X72000776Y-108395218D01*
X72000778Y-108395218D01*
X72000781Y-108395220D01*
X72105137Y-108429127D01*
X72195465Y-108458477D01*
X72296557Y-108474488D01*
X72397648Y-108490500D01*
X72397649Y-108490500D01*
X72602351Y-108490500D01*
X72602352Y-108490500D01*
X72804534Y-108458477D01*
X72999219Y-108395220D01*
X73181610Y-108302287D01*
X73332042Y-108192993D01*
X73347213Y-108181971D01*
X73347215Y-108181968D01*
X73347219Y-108181966D01*
X73491966Y-108037219D01*
X73491968Y-108037215D01*
X73491971Y-108037213D01*
X73558929Y-107945051D01*
X73612287Y-107871610D01*
X73705220Y-107689219D01*
X73768477Y-107494534D01*
X73800500Y-107292352D01*
X73800500Y-107087648D01*
X73768477Y-106885466D01*
X73705220Y-106690781D01*
X73705218Y-106690778D01*
X73705218Y-106690776D01*
X73662226Y-106606401D01*
X73612287Y-106508390D01*
X73587125Y-106473757D01*
X73524182Y-106387122D01*
X73500702Y-106321316D01*
X73500500Y-106314237D01*
X73500500Y-96759568D01*
X74699500Y-96759568D01*
X74699500Y-97240431D01*
X74730942Y-97519494D01*
X74730945Y-97519512D01*
X74793439Y-97793317D01*
X74793443Y-97793329D01*
X74886200Y-98058411D01*
X75008053Y-98311442D01*
X75008055Y-98311445D01*
X75157477Y-98549248D01*
X75332584Y-98768825D01*
X75531175Y-98967416D01*
X75750752Y-99142523D01*
X75988555Y-99291945D01*
X76241592Y-99413801D01*
X76440680Y-99483465D01*
X76506670Y-99506556D01*
X76506682Y-99506560D01*
X76780491Y-99569055D01*
X76780497Y-99569055D01*
X76780505Y-99569057D01*
X76966547Y-99590018D01*
X77059569Y-99600499D01*
X77059572Y-99600500D01*
X77059575Y-99600500D01*
X77340428Y-99600500D01*
X77340429Y-99600499D01*
X77483055Y-99584429D01*
X77619494Y-99569057D01*
X77619499Y-99569056D01*
X77619509Y-99569055D01*
X77893318Y-99506560D01*
X78158408Y-99413801D01*
X78411445Y-99291945D01*
X78649248Y-99142523D01*
X78868825Y-98967416D01*
X79067416Y-98768825D01*
X79242523Y-98549248D01*
X79391945Y-98311445D01*
X79513801Y-98058408D01*
X79606560Y-97793318D01*
X79669055Y-97519509D01*
X79700500Y-97240425D01*
X79700500Y-96759575D01*
X79669055Y-96480491D01*
X79606560Y-96206682D01*
X79513801Y-95941592D01*
X79391945Y-95688555D01*
X79242523Y-95450752D01*
X79067416Y-95231175D01*
X78868825Y-95032584D01*
X78649248Y-94857477D01*
X78411445Y-94708055D01*
X78411442Y-94708053D01*
X78158411Y-94586200D01*
X77893329Y-94493443D01*
X77893317Y-94493439D01*
X77619512Y-94430945D01*
X77619494Y-94430942D01*
X77340431Y-94399500D01*
X77340425Y-94399500D01*
X77059575Y-94399500D01*
X77059568Y-94399500D01*
X76780505Y-94430942D01*
X76780487Y-94430945D01*
X76506682Y-94493439D01*
X76506670Y-94493443D01*
X76241588Y-94586200D01*
X75988557Y-94708053D01*
X75750753Y-94857476D01*
X75531175Y-95032583D01*
X75332583Y-95231175D01*
X75157476Y-95450753D01*
X75008053Y-95688557D01*
X74886200Y-95941588D01*
X74793443Y-96206670D01*
X74793439Y-96206682D01*
X74730945Y-96480487D01*
X74730942Y-96480505D01*
X74699500Y-96759568D01*
X73500500Y-96759568D01*
X73500500Y-80095781D01*
X73520185Y-80028742D01*
X73536814Y-80008105D01*
X74728925Y-78815993D01*
X74790246Y-78782510D01*
X74859938Y-78787494D01*
X74915871Y-78829366D01*
X74934535Y-78865358D01*
X74974780Y-78989219D01*
X75059806Y-79156092D01*
X75067715Y-79171613D01*
X75188028Y-79337213D01*
X75332786Y-79481971D01*
X75487749Y-79594556D01*
X75498390Y-79602287D01*
X75589840Y-79648883D01*
X75591080Y-79649515D01*
X75641876Y-79697490D01*
X75658671Y-79765311D01*
X75636134Y-79831446D01*
X75591080Y-79870485D01*
X75498386Y-79917715D01*
X75332786Y-80038028D01*
X75188028Y-80182786D01*
X75067715Y-80348386D01*
X74974781Y-80530776D01*
X74911522Y-80725465D01*
X74879500Y-80927648D01*
X74879500Y-81132351D01*
X74911522Y-81334534D01*
X74974781Y-81529223D01*
X75067715Y-81711613D01*
X75188028Y-81877213D01*
X75332786Y-82021971D01*
X75487749Y-82134556D01*
X75498390Y-82142287D01*
X75589840Y-82188883D01*
X75591080Y-82189515D01*
X75641876Y-82237490D01*
X75658671Y-82305311D01*
X75636134Y-82371446D01*
X75591080Y-82410485D01*
X75498386Y-82457715D01*
X75332786Y-82578028D01*
X75188028Y-82722786D01*
X75067715Y-82888386D01*
X74974781Y-83070776D01*
X74911522Y-83265465D01*
X74889798Y-83402627D01*
X74879500Y-83467648D01*
X74879500Y-83672352D01*
X74883878Y-83699995D01*
X74911522Y-83874534D01*
X74974781Y-84069223D01*
X75032248Y-84182007D01*
X75059138Y-84234781D01*
X75067715Y-84251613D01*
X75188028Y-84417213D01*
X75332786Y-84561971D01*
X75487749Y-84674556D01*
X75498390Y-84682287D01*
X75614607Y-84741503D01*
X75680776Y-84775218D01*
X75680778Y-84775218D01*
X75680781Y-84775220D01*
X75785137Y-84809127D01*
X75875465Y-84838477D01*
X75939019Y-84848543D01*
X76077648Y-84870500D01*
X76077649Y-84870500D01*
X76282351Y-84870500D01*
X76282352Y-84870500D01*
X76484534Y-84838477D01*
X76498842Y-84833827D01*
X76568682Y-84831831D01*
X76624842Y-84864077D01*
X76916748Y-85155983D01*
X76950233Y-85217306D01*
X76945249Y-85286998D01*
X76903377Y-85342931D01*
X76885363Y-85354148D01*
X76818648Y-85388141D01*
X76818645Y-85388143D01*
X76774077Y-85420523D01*
X76774077Y-85420524D01*
X77453554Y-86100000D01*
X77447339Y-86100000D01*
X77345606Y-86127259D01*
X77254394Y-86179920D01*
X77179920Y-86254394D01*
X77127259Y-86345606D01*
X77100000Y-86447339D01*
X77100000Y-86453553D01*
X76420524Y-85774077D01*
X76420523Y-85774077D01*
X76388143Y-85818644D01*
X76295244Y-86000968D01*
X76232009Y-86195582D01*
X76200000Y-86397682D01*
X76200000Y-86602317D01*
X76232009Y-86804417D01*
X76295244Y-86999031D01*
X76388141Y-87181350D01*
X76388147Y-87181359D01*
X76420523Y-87225921D01*
X76420524Y-87225922D01*
X77100000Y-86546446D01*
X77100000Y-86552661D01*
X77127259Y-86654394D01*
X77179920Y-86745606D01*
X77254394Y-86820080D01*
X77345606Y-86872741D01*
X77447339Y-86900000D01*
X77453553Y-86900000D01*
X76774076Y-87579474D01*
X76818650Y-87611859D01*
X77000968Y-87704755D01*
X77195582Y-87767990D01*
X77397683Y-87800000D01*
X77602317Y-87800000D01*
X77804417Y-87767990D01*
X77999031Y-87704755D01*
X78181349Y-87611859D01*
X78225921Y-87579474D01*
X77546447Y-86900000D01*
X77552661Y-86900000D01*
X77654394Y-86872741D01*
X77745606Y-86820080D01*
X77820080Y-86745606D01*
X77872741Y-86654394D01*
X77900000Y-86552661D01*
X77900000Y-86546446D01*
X78579474Y-87225921D01*
X78611859Y-87181349D01*
X78645849Y-87114639D01*
X78693823Y-87063842D01*
X78761644Y-87047046D01*
X78827779Y-87069582D01*
X78844016Y-87083251D01*
X81113181Y-89352416D01*
X81146666Y-89413739D01*
X81149500Y-89440097D01*
X81149500Y-106658164D01*
X81129815Y-106725203D01*
X81081796Y-106768648D01*
X81015976Y-106802185D01*
X80837641Y-106931752D01*
X80837635Y-106931757D01*
X80816207Y-106953185D01*
X80754884Y-106986669D01*
X80685192Y-106981683D01*
X80629259Y-106939810D01*
X80612346Y-106908834D01*
X80593355Y-106857915D01*
X80593350Y-106857906D01*
X80507190Y-106742812D01*
X80507187Y-106742809D01*
X80392093Y-106656649D01*
X80392086Y-106656645D01*
X80257379Y-106606403D01*
X80257372Y-106606401D01*
X80197844Y-106600000D01*
X79500000Y-106600000D01*
X79500000Y-107566988D01*
X79442993Y-107534075D01*
X79315826Y-107500000D01*
X79184174Y-107500000D01*
X79057007Y-107534075D01*
X79000000Y-107566988D01*
X79000000Y-106600000D01*
X78302155Y-106600000D01*
X78242627Y-106606401D01*
X78242620Y-106606403D01*
X78107913Y-106656645D01*
X78107906Y-106656649D01*
X77992812Y-106742809D01*
X77992809Y-106742812D01*
X77906649Y-106857906D01*
X77906645Y-106857913D01*
X77856403Y-106992620D01*
X77856401Y-106992627D01*
X77850000Y-107052155D01*
X77850000Y-107750000D01*
X78816988Y-107750000D01*
X78784075Y-107807007D01*
X78750000Y-107934174D01*
X78750000Y-108065826D01*
X78784075Y-108192993D01*
X78816988Y-108250000D01*
X77850000Y-108250000D01*
X77850000Y-108947844D01*
X77856401Y-109007372D01*
X77856403Y-109007379D01*
X77906645Y-109142086D01*
X77906649Y-109142093D01*
X77992809Y-109257187D01*
X77992812Y-109257190D01*
X78107906Y-109343350D01*
X78107913Y-109343354D01*
X78242620Y-109393596D01*
X78242627Y-109393598D01*
X78302155Y-109399999D01*
X78302172Y-109400000D01*
X79000000Y-109400000D01*
X79000000Y-108433012D01*
X79057007Y-108465925D01*
X79184174Y-108500000D01*
X79315826Y-108500000D01*
X79442993Y-108465925D01*
X79500000Y-108433012D01*
X79500000Y-109400000D01*
X80197828Y-109400000D01*
X80197844Y-109399999D01*
X80257372Y-109393598D01*
X80257379Y-109393596D01*
X80392086Y-109343354D01*
X80392093Y-109343350D01*
X80507187Y-109257190D01*
X80507190Y-109257187D01*
X80593350Y-109142093D01*
X80593353Y-109142088D01*
X80612345Y-109091166D01*
X80654215Y-109035232D01*
X80719679Y-109010813D01*
X80787952Y-109025663D01*
X80816209Y-109046816D01*
X80837636Y-109068243D01*
X80837641Y-109068247D01*
X80993192Y-109181260D01*
X81015978Y-109197815D01*
X81132501Y-109257187D01*
X81212393Y-109297895D01*
X81212396Y-109297896D01*
X81317221Y-109331955D01*
X81422049Y-109366015D01*
X81639778Y-109400500D01*
X81639779Y-109400500D01*
X81860221Y-109400500D01*
X81860222Y-109400500D01*
X82077951Y-109366015D01*
X82287606Y-109297895D01*
X82484022Y-109197815D01*
X82662365Y-109068242D01*
X82818242Y-108912365D01*
X82899682Y-108800270D01*
X82955011Y-108757606D01*
X83024624Y-108751627D01*
X83086420Y-108784232D01*
X83100313Y-108800265D01*
X83181753Y-108912358D01*
X83181758Y-108912365D01*
X83337636Y-109068243D01*
X83337641Y-109068247D01*
X83493192Y-109181260D01*
X83515978Y-109197815D01*
X83632501Y-109257187D01*
X83712393Y-109297895D01*
X83712396Y-109297896D01*
X83817221Y-109331955D01*
X83922049Y-109366015D01*
X84139778Y-109400500D01*
X84139779Y-109400500D01*
X84360221Y-109400500D01*
X84360222Y-109400500D01*
X84577951Y-109366015D01*
X84787606Y-109297895D01*
X84984022Y-109197815D01*
X85162365Y-109068242D01*
X85318242Y-108912365D01*
X85399682Y-108800270D01*
X85455011Y-108757606D01*
X85524624Y-108751627D01*
X85586420Y-108784232D01*
X85600313Y-108800265D01*
X85681753Y-108912358D01*
X85681758Y-108912365D01*
X85837636Y-109068243D01*
X85837641Y-109068247D01*
X85993192Y-109181260D01*
X86015978Y-109197815D01*
X86132501Y-109257187D01*
X86212393Y-109297895D01*
X86212396Y-109297896D01*
X86317221Y-109331955D01*
X86422049Y-109366015D01*
X86639778Y-109400500D01*
X86639779Y-109400500D01*
X86860221Y-109400500D01*
X86860222Y-109400500D01*
X87077951Y-109366015D01*
X87287606Y-109297895D01*
X87484022Y-109197815D01*
X87662365Y-109068242D01*
X87818242Y-108912365D01*
X87947815Y-108734022D01*
X88047895Y-108537606D01*
X88116015Y-108327951D01*
X88150500Y-108110222D01*
X88150500Y-107889778D01*
X88116015Y-107672049D01*
X88060114Y-107500000D01*
X88047896Y-107462396D01*
X88047895Y-107462393D01*
X88013237Y-107394375D01*
X87947815Y-107265978D01*
X87854354Y-107137339D01*
X87818247Y-107087641D01*
X87818243Y-107087636D01*
X87662363Y-106931756D01*
X87662358Y-106931752D01*
X87484025Y-106802187D01*
X87484024Y-106802186D01*
X87484022Y-106802185D01*
X87418203Y-106768648D01*
X87287606Y-106702104D01*
X87287603Y-106702103D01*
X87077952Y-106633985D01*
X86969086Y-106616742D01*
X86860222Y-106599500D01*
X86639778Y-106599500D01*
X86567201Y-106610995D01*
X86422047Y-106633985D01*
X86212396Y-106702103D01*
X86212393Y-106702104D01*
X86015974Y-106802187D01*
X85837641Y-106931752D01*
X85837636Y-106931756D01*
X85681756Y-107087636D01*
X85681752Y-107087641D01*
X85600318Y-107199727D01*
X85544989Y-107242393D01*
X85475375Y-107248372D01*
X85413580Y-107215767D01*
X85399682Y-107199727D01*
X85318247Y-107087641D01*
X85318243Y-107087636D01*
X85162363Y-106931756D01*
X85162358Y-106931752D01*
X84984025Y-106802187D01*
X84984024Y-106802186D01*
X84984022Y-106802185D01*
X84918203Y-106768648D01*
X84787606Y-106702104D01*
X84787603Y-106702103D01*
X84577952Y-106633985D01*
X84469086Y-106616742D01*
X84360222Y-106599500D01*
X84139778Y-106599500D01*
X84067201Y-106610995D01*
X83922047Y-106633985D01*
X83712396Y-106702103D01*
X83712393Y-106702104D01*
X83515974Y-106802187D01*
X83337641Y-106931752D01*
X83337636Y-106931756D01*
X83181756Y-107087636D01*
X83181752Y-107087641D01*
X83100318Y-107199727D01*
X83044989Y-107242393D01*
X82975375Y-107248372D01*
X82913580Y-107215767D01*
X82899682Y-107199727D01*
X82818247Y-107087641D01*
X82818243Y-107087636D01*
X82662363Y-106931756D01*
X82662358Y-106931752D01*
X82484023Y-106802185D01*
X82418204Y-106768648D01*
X82367409Y-106720674D01*
X82350500Y-106658164D01*
X82350500Y-96759568D01*
X86299500Y-96759568D01*
X86299500Y-97240431D01*
X86330942Y-97519494D01*
X86330945Y-97519512D01*
X86393439Y-97793317D01*
X86393443Y-97793329D01*
X86486200Y-98058411D01*
X86608053Y-98311442D01*
X86608055Y-98311445D01*
X86757477Y-98549248D01*
X86932584Y-98768825D01*
X87131175Y-98967416D01*
X87350752Y-99142523D01*
X87588555Y-99291945D01*
X87841592Y-99413801D01*
X88040680Y-99483465D01*
X88106670Y-99506556D01*
X88106682Y-99506560D01*
X88380491Y-99569055D01*
X88380497Y-99569055D01*
X88380505Y-99569057D01*
X88566547Y-99590018D01*
X88659569Y-99600499D01*
X88659572Y-99600500D01*
X88659575Y-99600500D01*
X88940428Y-99600500D01*
X88940429Y-99600499D01*
X89083055Y-99584429D01*
X89219494Y-99569057D01*
X89219499Y-99569056D01*
X89219509Y-99569055D01*
X89493318Y-99506560D01*
X89758408Y-99413801D01*
X90011445Y-99291945D01*
X90249248Y-99142523D01*
X90468825Y-98967416D01*
X90667416Y-98768825D01*
X90842523Y-98549248D01*
X90991945Y-98311445D01*
X91113801Y-98058408D01*
X91206560Y-97793318D01*
X91269055Y-97519509D01*
X91300500Y-97240425D01*
X91300500Y-96759575D01*
X91269055Y-96480491D01*
X91206560Y-96206682D01*
X91113801Y-95941592D01*
X90991945Y-95688555D01*
X90842523Y-95450752D01*
X90667416Y-95231175D01*
X90468825Y-95032584D01*
X90249248Y-94857477D01*
X90011445Y-94708055D01*
X90011442Y-94708053D01*
X89758411Y-94586200D01*
X89493329Y-94493443D01*
X89493317Y-94493439D01*
X89219512Y-94430945D01*
X89219494Y-94430942D01*
X88940431Y-94399500D01*
X88940425Y-94399500D01*
X88659575Y-94399500D01*
X88659568Y-94399500D01*
X88380505Y-94430942D01*
X88380487Y-94430945D01*
X88106682Y-94493439D01*
X88106670Y-94493443D01*
X87841588Y-94586200D01*
X87588557Y-94708053D01*
X87350753Y-94857476D01*
X87131175Y-95032583D01*
X86932583Y-95231175D01*
X86757476Y-95450753D01*
X86608053Y-95688557D01*
X86486200Y-95941588D01*
X86393443Y-96206670D01*
X86393439Y-96206682D01*
X86330945Y-96480487D01*
X86330942Y-96480505D01*
X86299500Y-96759568D01*
X82350500Y-96759568D01*
X82350500Y-92957648D01*
X92449500Y-92957648D01*
X92449500Y-93162351D01*
X92481522Y-93364534D01*
X92544781Y-93559223D01*
X92637715Y-93741613D01*
X92758028Y-93907213D01*
X92902786Y-94051971D01*
X93057749Y-94164556D01*
X93068390Y-94172287D01*
X93184607Y-94231503D01*
X93250776Y-94265218D01*
X93250778Y-94265218D01*
X93250781Y-94265220D01*
X93355137Y-94299127D01*
X93445465Y-94328477D01*
X93546557Y-94344488D01*
X93647648Y-94360500D01*
X93647649Y-94360500D01*
X93852351Y-94360500D01*
X93852352Y-94360500D01*
X94054534Y-94328477D01*
X94249219Y-94265220D01*
X94431610Y-94172287D01*
X94524590Y-94104732D01*
X94597213Y-94051971D01*
X94597215Y-94051968D01*
X94597219Y-94051966D01*
X94741966Y-93907219D01*
X94741968Y-93907215D01*
X94741971Y-93907213D01*
X94794732Y-93834590D01*
X94862287Y-93741610D01*
X94955220Y-93559219D01*
X95018477Y-93364534D01*
X95050500Y-93162352D01*
X95050500Y-92957648D01*
X95018477Y-92755466D01*
X95016900Y-92750614D01*
X94955218Y-92560776D01*
X94921503Y-92494607D01*
X94862287Y-92378390D01*
X94854556Y-92367749D01*
X94741971Y-92212786D01*
X94597213Y-92068028D01*
X94431613Y-91947715D01*
X94431612Y-91947714D01*
X94431610Y-91947713D01*
X94374653Y-91918691D01*
X94249223Y-91854781D01*
X94054534Y-91791522D01*
X93879995Y-91763878D01*
X93852352Y-91759500D01*
X93647648Y-91759500D01*
X93623329Y-91763351D01*
X93445465Y-91791522D01*
X93250776Y-91854781D01*
X93068386Y-91947715D01*
X92902786Y-92068028D01*
X92758028Y-92212786D01*
X92637715Y-92378386D01*
X92544781Y-92560776D01*
X92481522Y-92755465D01*
X92449500Y-92957648D01*
X82350500Y-92957648D01*
X82350500Y-89229060D01*
X82350501Y-89229047D01*
X82350501Y-89060944D01*
X82309576Y-88908214D01*
X82309573Y-88908209D01*
X82230524Y-88771290D01*
X82230518Y-88771282D01*
X77474077Y-84014842D01*
X77440592Y-83953519D01*
X77443828Y-83888841D01*
X77448477Y-83874534D01*
X77480500Y-83672352D01*
X77480500Y-83467648D01*
X77448477Y-83265466D01*
X77385220Y-83070781D01*
X77385218Y-83070778D01*
X77385218Y-83070776D01*
X77346880Y-82995535D01*
X77292287Y-82888390D01*
X77256344Y-82838918D01*
X77171971Y-82722786D01*
X77027213Y-82578028D01*
X76861614Y-82457715D01*
X76855006Y-82454348D01*
X76768917Y-82410483D01*
X76718123Y-82362511D01*
X76701328Y-82294690D01*
X76723865Y-82228555D01*
X76768917Y-82189516D01*
X76861610Y-82142287D01*
X76998878Y-82042557D01*
X77027213Y-82021971D01*
X77027215Y-82021968D01*
X77027219Y-82021966D01*
X77171966Y-81877219D01*
X77171968Y-81877215D01*
X77171971Y-81877213D01*
X77275221Y-81735099D01*
X77292287Y-81711610D01*
X77385220Y-81529219D01*
X77448477Y-81334534D01*
X77480500Y-81132352D01*
X77480500Y-80927648D01*
X77450580Y-80738741D01*
X77448477Y-80725465D01*
X77385218Y-80530776D01*
X77299687Y-80362914D01*
X77292287Y-80348390D01*
X77260960Y-80305272D01*
X77171971Y-80182786D01*
X77027213Y-80038028D01*
X76861614Y-79917715D01*
X76826846Y-79900000D01*
X76768917Y-79870483D01*
X76718123Y-79822511D01*
X76701328Y-79754690D01*
X76723865Y-79688555D01*
X76768917Y-79649516D01*
X76861610Y-79602287D01*
X76882770Y-79586913D01*
X77027213Y-79481971D01*
X77027215Y-79481968D01*
X77027219Y-79481966D01*
X77171966Y-79337219D01*
X77171968Y-79337215D01*
X77171971Y-79337213D01*
X77224732Y-79264590D01*
X77292287Y-79171610D01*
X77385220Y-78989219D01*
X77448477Y-78794534D01*
X77480500Y-78592352D01*
X77480500Y-78387648D01*
X77471606Y-78331493D01*
X77448477Y-78185465D01*
X77385218Y-77990776D01*
X77346716Y-77915213D01*
X77292287Y-77808390D01*
X77254322Y-77756135D01*
X77171971Y-77642786D01*
X77027213Y-77498028D01*
X76861614Y-77377715D01*
X76835745Y-77364534D01*
X76768917Y-77330483D01*
X76718123Y-77282511D01*
X76701328Y-77214690D01*
X76723865Y-77148555D01*
X76768917Y-77109516D01*
X76861610Y-77062287D01*
X76882770Y-77046913D01*
X77027213Y-76941971D01*
X77027215Y-76941968D01*
X77027219Y-76941966D01*
X77171966Y-76797219D01*
X77171968Y-76797215D01*
X77171971Y-76797213D01*
X77226692Y-76721894D01*
X77292287Y-76631610D01*
X77385220Y-76449219D01*
X77448477Y-76254534D01*
X77471925Y-76106483D01*
X77501854Y-76043350D01*
X77506699Y-76038219D01*
X78137778Y-75407141D01*
X78137782Y-75407139D01*
X78277139Y-75267782D01*
X78386632Y-75103914D01*
X78455457Y-74937754D01*
X78462051Y-74921836D01*
X78484836Y-74807288D01*
X78496675Y-74747772D01*
X78500500Y-74728543D01*
X78500500Y-73875761D01*
X78520185Y-73808722D01*
X78524165Y-73802899D01*
X78612287Y-73681610D01*
X78705220Y-73499219D01*
X78768477Y-73304534D01*
X78800500Y-73102352D01*
X78800500Y-72897648D01*
X78780111Y-72768920D01*
X78768477Y-72695465D01*
X78716249Y-72534725D01*
X78705220Y-72500781D01*
X78705218Y-72500778D01*
X78705218Y-72500776D01*
X78653104Y-72398498D01*
X78612287Y-72318390D01*
X78602402Y-72304785D01*
X78491971Y-72152786D01*
X78347213Y-72008028D01*
X78181613Y-71887715D01*
X78181612Y-71887714D01*
X78181610Y-71887713D01*
X78124653Y-71858691D01*
X77999223Y-71794781D01*
X77804535Y-71731523D01*
X77656483Y-71708073D01*
X77593349Y-71678143D01*
X77588201Y-71673281D01*
X74786819Y-68871899D01*
X74753334Y-68810576D01*
X74750500Y-68784218D01*
X74750500Y-63651456D01*
X74712052Y-63458170D01*
X74712051Y-63458169D01*
X74712051Y-63458165D01*
X74658375Y-63328578D01*
X74636635Y-63276092D01*
X74636628Y-63276079D01*
X74528310Y-63113971D01*
X74527139Y-63112218D01*
X74387782Y-62972861D01*
X74387781Y-62972860D01*
X73312602Y-61897682D01*
X90950000Y-61897682D01*
X90950000Y-62102317D01*
X90982009Y-62304417D01*
X91045244Y-62499031D01*
X91138141Y-62681350D01*
X91138147Y-62681359D01*
X91170523Y-62725921D01*
X91170524Y-62725922D01*
X91850000Y-62046446D01*
X91850000Y-62052661D01*
X91877259Y-62154394D01*
X91929920Y-62245606D01*
X92004394Y-62320080D01*
X92095606Y-62372741D01*
X92197339Y-62400000D01*
X92203553Y-62400000D01*
X91524076Y-63079474D01*
X91568650Y-63111859D01*
X91750968Y-63204755D01*
X91945582Y-63267990D01*
X92147683Y-63300000D01*
X92352317Y-63300000D01*
X92554417Y-63267990D01*
X92749031Y-63204755D01*
X92931349Y-63111859D01*
X92975921Y-63079474D01*
X92296447Y-62400000D01*
X92302661Y-62400000D01*
X92404394Y-62372741D01*
X92495606Y-62320080D01*
X92570080Y-62245606D01*
X92622741Y-62154394D01*
X92650000Y-62052661D01*
X92650000Y-62046447D01*
X93329474Y-62725921D01*
X93361859Y-62681349D01*
X93454755Y-62499031D01*
X93517990Y-62304417D01*
X93550000Y-62102317D01*
X93550000Y-61897682D01*
X93517990Y-61695582D01*
X93454755Y-61500968D01*
X93361859Y-61318650D01*
X93329474Y-61274077D01*
X93329474Y-61274076D01*
X92650000Y-61953551D01*
X92650000Y-61947339D01*
X92622741Y-61845606D01*
X92570080Y-61754394D01*
X92495606Y-61679920D01*
X92404394Y-61627259D01*
X92302661Y-61600000D01*
X92296446Y-61600000D01*
X92975922Y-60920524D01*
X92975921Y-60920523D01*
X92931359Y-60888147D01*
X92931350Y-60888141D01*
X92749031Y-60795244D01*
X92554417Y-60732009D01*
X92352317Y-60700000D01*
X92147683Y-60700000D01*
X91945582Y-60732009D01*
X91750968Y-60795244D01*
X91568644Y-60888143D01*
X91524077Y-60920523D01*
X91524077Y-60920524D01*
X92203554Y-61600000D01*
X92197339Y-61600000D01*
X92095606Y-61627259D01*
X92004394Y-61679920D01*
X91929920Y-61754394D01*
X91877259Y-61845606D01*
X91850000Y-61947339D01*
X91850000Y-61953553D01*
X91170524Y-61274077D01*
X91170523Y-61274077D01*
X91138143Y-61318644D01*
X91045244Y-61500968D01*
X90982009Y-61695582D01*
X90950000Y-61897682D01*
X73312602Y-61897682D01*
X72688997Y-61274077D01*
X71076717Y-59661797D01*
X71043232Y-59600474D01*
X71041925Y-59593513D01*
X71018477Y-59445466D01*
X71018477Y-59445465D01*
X70955218Y-59250776D01*
X70921503Y-59184607D01*
X70862287Y-59068390D01*
X70805643Y-58990425D01*
X70774182Y-58947122D01*
X70750702Y-58881316D01*
X70750500Y-58874237D01*
X70750500Y-58509568D01*
X74699500Y-58509568D01*
X74699500Y-58990431D01*
X74730942Y-59269494D01*
X74730945Y-59269512D01*
X74793439Y-59543317D01*
X74793443Y-59543329D01*
X74886200Y-59808411D01*
X75008053Y-60061442D01*
X75008055Y-60061445D01*
X75157477Y-60299248D01*
X75332584Y-60518825D01*
X75531175Y-60717416D01*
X75750752Y-60892523D01*
X75988555Y-61041945D01*
X76241592Y-61163801D01*
X76440680Y-61233465D01*
X76506670Y-61256556D01*
X76506682Y-61256560D01*
X76780491Y-61319055D01*
X76780497Y-61319055D01*
X76780505Y-61319057D01*
X76966547Y-61340018D01*
X77059569Y-61350499D01*
X77059572Y-61350500D01*
X77059575Y-61350500D01*
X77340428Y-61350500D01*
X77340429Y-61350499D01*
X77483055Y-61334429D01*
X77619494Y-61319057D01*
X77619499Y-61319056D01*
X77619509Y-61319055D01*
X77893318Y-61256560D01*
X78158408Y-61163801D01*
X78411445Y-61041945D01*
X78649248Y-60892523D01*
X78868825Y-60717416D01*
X79067416Y-60518825D01*
X79242523Y-60299248D01*
X79391945Y-60061445D01*
X79513801Y-59808408D01*
X79606560Y-59543318D01*
X79669055Y-59269509D01*
X79700500Y-58990425D01*
X79700500Y-58509575D01*
X79690018Y-58416547D01*
X79669057Y-58230505D01*
X79669054Y-58230487D01*
X79662516Y-58201844D01*
X79606560Y-57956682D01*
X79513801Y-57691592D01*
X79391945Y-57438555D01*
X79242523Y-57200752D01*
X79067416Y-56981175D01*
X78868825Y-56782584D01*
X78649248Y-56607477D01*
X78411445Y-56458055D01*
X78411442Y-56458053D01*
X78158411Y-56336200D01*
X77893329Y-56243443D01*
X77893317Y-56243439D01*
X77619512Y-56180945D01*
X77619494Y-56180942D01*
X77340431Y-56149500D01*
X77340425Y-56149500D01*
X77059575Y-56149500D01*
X77059568Y-56149500D01*
X76780505Y-56180942D01*
X76780487Y-56180945D01*
X76506682Y-56243439D01*
X76506670Y-56243443D01*
X76241588Y-56336200D01*
X75988557Y-56458053D01*
X75750753Y-56607476D01*
X75531175Y-56782583D01*
X75332583Y-56981175D01*
X75157476Y-57200753D01*
X75008055Y-57438555D01*
X74886200Y-57691588D01*
X74793443Y-57956670D01*
X74793439Y-57956682D01*
X74730945Y-58230487D01*
X74730942Y-58230505D01*
X74699500Y-58509568D01*
X70750500Y-58509568D01*
X70750500Y-56804499D01*
X70770185Y-56737460D01*
X70822989Y-56691705D01*
X70874500Y-56680499D01*
X70897871Y-56680499D01*
X70897872Y-56680499D01*
X70957483Y-56674091D01*
X71092331Y-56623796D01*
X71207546Y-56537546D01*
X71293796Y-56422331D01*
X71344091Y-56287483D01*
X71350500Y-56227873D01*
X71350499Y-55547740D01*
X71350499Y-54945782D01*
X71370184Y-54878743D01*
X71386818Y-54858101D01*
X72163213Y-54081707D01*
X72224536Y-54048222D01*
X72250894Y-54045388D01*
X73412820Y-54045388D01*
X73414425Y-54045859D01*
X73416043Y-54045430D01*
X73447836Y-54055669D01*
X73479859Y-54065073D01*
X73481464Y-54066500D01*
X73482548Y-54066850D01*
X73491853Y-54075742D01*
X73508612Y-54090649D01*
X73510400Y-54092825D01*
X73592454Y-54202434D01*
X73613363Y-54218087D01*
X73622865Y-54229646D01*
X73630923Y-54248579D01*
X73643254Y-54265051D01*
X73644328Y-54280073D01*
X73650228Y-54293934D01*
X73646771Y-54314219D01*
X73648239Y-54334742D01*
X73638732Y-54361386D01*
X73638490Y-54362811D01*
X73638054Y-54363288D01*
X73637558Y-54364679D01*
X73545245Y-54545853D01*
X73482009Y-54740470D01*
X73450000Y-54942570D01*
X73450000Y-55147205D01*
X73482009Y-55349305D01*
X73545244Y-55543919D01*
X73638141Y-55726238D01*
X73638147Y-55726247D01*
X73670523Y-55770809D01*
X73670524Y-55770810D01*
X74350000Y-55091334D01*
X74350000Y-55097549D01*
X74377259Y-55199282D01*
X74429920Y-55290494D01*
X74504394Y-55364968D01*
X74595606Y-55417629D01*
X74697339Y-55444888D01*
X74703553Y-55444888D01*
X74024076Y-56124362D01*
X74068650Y-56156747D01*
X74250968Y-56249643D01*
X74445582Y-56312878D01*
X74647683Y-56344888D01*
X74852317Y-56344888D01*
X75054417Y-56312878D01*
X75249031Y-56249643D01*
X75431349Y-56156747D01*
X75475921Y-56124362D01*
X74796447Y-55444888D01*
X74802661Y-55444888D01*
X74904394Y-55417629D01*
X74995606Y-55364968D01*
X75070080Y-55290494D01*
X75122741Y-55199282D01*
X75150000Y-55097549D01*
X75150000Y-55091335D01*
X75829474Y-55770809D01*
X75861859Y-55726237D01*
X75954755Y-55543919D01*
X76017990Y-55349305D01*
X76050000Y-55147205D01*
X76050000Y-54942570D01*
X76017990Y-54740470D01*
X75954755Y-54545856D01*
X75862441Y-54364680D01*
X75849545Y-54296011D01*
X75875821Y-54231270D01*
X75898611Y-54209122D01*
X75907546Y-54202434D01*
X75993796Y-54087219D01*
X76044091Y-53952371D01*
X76050500Y-53892761D01*
X76050499Y-52197016D01*
X76044091Y-52137405D01*
X76023738Y-52082837D01*
X75993797Y-52002559D01*
X75993793Y-52002552D01*
X75907547Y-51887343D01*
X75907544Y-51887340D01*
X75792335Y-51801094D01*
X75792328Y-51801090D01*
X75657482Y-51750796D01*
X75657483Y-51750796D01*
X75597883Y-51744389D01*
X75597881Y-51744388D01*
X75597873Y-51744388D01*
X75597864Y-51744388D01*
X73902129Y-51744388D01*
X73902123Y-51744389D01*
X73842516Y-51750796D01*
X73707671Y-51801090D01*
X73707664Y-51801094D01*
X73592456Y-51887340D01*
X73592455Y-51887341D01*
X73592454Y-51887342D01*
X73512087Y-51994699D01*
X73456153Y-52036570D01*
X73412820Y-52044388D01*
X71686567Y-52044388D01*
X71589924Y-52063612D01*
X71493279Y-52082835D01*
X71493273Y-52082837D01*
X71439946Y-52104925D01*
X71439946Y-52104926D01*
X71394427Y-52123780D01*
X71311201Y-52158254D01*
X71311191Y-52158259D01*
X71147331Y-52267747D01*
X71077652Y-52337426D01*
X71007973Y-52407106D01*
X71007970Y-52407109D01*
X69971897Y-53443181D01*
X69910574Y-53476666D01*
X69884216Y-53479500D01*
X68602129Y-53479500D01*
X68602123Y-53479501D01*
X68542516Y-53485908D01*
X68407671Y-53536202D01*
X68407664Y-53536206D01*
X68292455Y-53622452D01*
X68292452Y-53622455D01*
X68206206Y-53737664D01*
X68206202Y-53737671D01*
X68155908Y-53872517D01*
X68149501Y-53932116D01*
X68149500Y-53932135D01*
X67500500Y-53932135D01*
X67500500Y-43124500D01*
X67520185Y-43057461D01*
X67572989Y-43011706D01*
X67624500Y-43000500D01*
X98375500Y-43000500D01*
X98442539Y-43020185D01*
G37*
%TD.AperFunction*%
%TA.AperFunction,Conductor*%
G36*
X78699075Y-115282007D02*
G01*
X78665000Y-115409174D01*
X78665000Y-115540826D01*
X78699075Y-115667993D01*
X78731988Y-115725000D01*
X77058012Y-115725000D01*
X77090925Y-115667993D01*
X77125000Y-115540826D01*
X77125000Y-115409174D01*
X77090925Y-115282007D01*
X77058012Y-115225000D01*
X78731988Y-115225000D01*
X78699075Y-115282007D01*
G37*
%TD.AperFunction*%
%TA.AperFunction,Conductor*%
G36*
X94821575Y-101902993D02*
G01*
X94887401Y-102017007D01*
X94980493Y-102110099D01*
X95094507Y-102175925D01*
X95158090Y-102192962D01*
X94525782Y-102825269D01*
X94525782Y-102825270D01*
X94579952Y-102864626D01*
X94579951Y-102864626D01*
X94588995Y-102869234D01*
X94639792Y-102917208D01*
X94656587Y-102985029D01*
X94634050Y-103051164D01*
X94588999Y-103090202D01*
X94579682Y-103094949D01*
X94407713Y-103219890D01*
X94257390Y-103370213D01*
X94132449Y-103542182D01*
X94127984Y-103550946D01*
X94080009Y-103601742D01*
X94012188Y-103618536D01*
X93946053Y-103595998D01*
X93907016Y-103550946D01*
X93902550Y-103542182D01*
X93777609Y-103370213D01*
X93627286Y-103219890D01*
X93455317Y-103094949D01*
X93446004Y-103090204D01*
X93395207Y-103042230D01*
X93378412Y-102974409D01*
X93400949Y-102908274D01*
X93446007Y-102869232D01*
X93455055Y-102864622D01*
X93509216Y-102825270D01*
X93509217Y-102825270D01*
X92876908Y-102192962D01*
X92940493Y-102175925D01*
X93054507Y-102110099D01*
X93147599Y-102017007D01*
X93213425Y-101902993D01*
X93230462Y-101839409D01*
X93862770Y-102471717D01*
X93862770Y-102471716D01*
X93902122Y-102417554D01*
X93907014Y-102407954D01*
X93954988Y-102357157D01*
X94022808Y-102340361D01*
X94088944Y-102362897D01*
X94127986Y-102407954D01*
X94132875Y-102417550D01*
X94172228Y-102471716D01*
X94804537Y-101839408D01*
X94821575Y-101902993D01*
G37*
%TD.AperFunction*%
%TA.AperFunction,Conductor*%
G36*
X69225000Y-83441988D02*
G01*
X69167993Y-83409075D01*
X69040826Y-83375000D01*
X68909174Y-83375000D01*
X68782007Y-83409075D01*
X68725000Y-83441988D01*
X68725000Y-81768012D01*
X68782007Y-81800925D01*
X68909174Y-81835000D01*
X69040826Y-81835000D01*
X69167993Y-81800925D01*
X69225000Y-81768012D01*
X69225000Y-83441988D01*
G37*
%TD.AperFunction*%
%TA.AperFunction,Conductor*%
G36*
X84994075Y-46655493D02*
G01*
X85059901Y-46769507D01*
X85152993Y-46862599D01*
X85267007Y-46928425D01*
X85330590Y-46945462D01*
X84698282Y-47577769D01*
X84698282Y-47577770D01*
X84752452Y-47617126D01*
X84762048Y-47622016D01*
X84812844Y-47669991D01*
X84829638Y-47737812D01*
X84807100Y-47803947D01*
X84762051Y-47842983D01*
X84752440Y-47847880D01*
X84698282Y-47887227D01*
X84698282Y-47887228D01*
X85330591Y-48519537D01*
X85267007Y-48536575D01*
X85152993Y-48602401D01*
X85059901Y-48695493D01*
X84994075Y-48809507D01*
X84977037Y-48873091D01*
X84344728Y-48240782D01*
X84344727Y-48240782D01*
X84305380Y-48294940D01*
X84305376Y-48294946D01*
X84300760Y-48304005D01*
X84252781Y-48354797D01*
X84184959Y-48371587D01*
X84118826Y-48349043D01*
X84079794Y-48303993D01*
X84075051Y-48294684D01*
X84075049Y-48294681D01*
X84075048Y-48294679D01*
X83947241Y-48118766D01*
X83948108Y-48118135D01*
X83921641Y-48059081D01*
X83920500Y-48042300D01*
X83920500Y-47422699D01*
X83940185Y-47355660D01*
X83949471Y-47343164D01*
X84011896Y-47257240D01*
X84075051Y-47170316D01*
X84079793Y-47161008D01*
X84127763Y-47110211D01*
X84195583Y-47093411D01*
X84261719Y-47115945D01*
X84300763Y-47161000D01*
X84305373Y-47170047D01*
X84344728Y-47224216D01*
X84977037Y-46591908D01*
X84994075Y-46655493D01*
G37*
%TD.AperFunction*%
%TA.AperFunction,Conductor*%
G36*
X87534075Y-46655493D02*
G01*
X87599901Y-46769507D01*
X87692993Y-46862599D01*
X87807007Y-46928425D01*
X87870590Y-46945462D01*
X87238282Y-47577769D01*
X87238282Y-47577770D01*
X87292452Y-47617126D01*
X87302048Y-47622016D01*
X87352844Y-47669991D01*
X87369638Y-47737812D01*
X87347100Y-47803947D01*
X87302051Y-47842983D01*
X87292440Y-47847880D01*
X87238282Y-47887227D01*
X87238282Y-47887228D01*
X87870591Y-48519537D01*
X87807007Y-48536575D01*
X87692993Y-48602401D01*
X87599901Y-48695493D01*
X87534075Y-48809507D01*
X87517037Y-48873091D01*
X86884728Y-48240782D01*
X86884727Y-48240782D01*
X86845380Y-48294940D01*
X86840483Y-48304551D01*
X86792506Y-48355345D01*
X86724684Y-48372138D01*
X86658550Y-48349598D01*
X86619516Y-48304548D01*
X86614626Y-48294952D01*
X86575270Y-48240782D01*
X86575269Y-48240782D01*
X85942962Y-48873090D01*
X85925925Y-48809507D01*
X85860099Y-48695493D01*
X85767007Y-48602401D01*
X85652993Y-48536575D01*
X85589409Y-48519537D01*
X86221716Y-47887228D01*
X86167550Y-47847875D01*
X86157954Y-47842986D01*
X86107157Y-47795012D01*
X86090361Y-47727192D01*
X86111288Y-47663395D01*
X86190027Y-47546081D01*
X85589408Y-46945462D01*
X85652993Y-46928425D01*
X85767007Y-46862599D01*
X85860099Y-46769507D01*
X85925925Y-46655493D01*
X85942962Y-46591908D01*
X86575270Y-47224217D01*
X86575270Y-47224216D01*
X86614622Y-47170054D01*
X86619514Y-47160454D01*
X86667488Y-47109657D01*
X86735308Y-47092861D01*
X86801444Y-47115397D01*
X86840486Y-47160454D01*
X86845375Y-47170050D01*
X86884728Y-47224216D01*
X87517037Y-46591908D01*
X87534075Y-46655493D01*
G37*
%TD.AperFunction*%
%TA.AperFunction,Conductor*%
G36*
X90074075Y-46655493D02*
G01*
X90139901Y-46769507D01*
X90232993Y-46862599D01*
X90347007Y-46928425D01*
X90410590Y-46945462D01*
X89778282Y-47577769D01*
X89778282Y-47577770D01*
X89832452Y-47617126D01*
X89842048Y-47622016D01*
X89892844Y-47669991D01*
X89909638Y-47737812D01*
X89887100Y-47803947D01*
X89842051Y-47842983D01*
X89832440Y-47847880D01*
X89778282Y-47887227D01*
X89778282Y-47887228D01*
X90410591Y-48519537D01*
X90347007Y-48536575D01*
X90232993Y-48602401D01*
X90139901Y-48695493D01*
X90074075Y-48809507D01*
X90057037Y-48873091D01*
X89424728Y-48240782D01*
X89424727Y-48240782D01*
X89385380Y-48294940D01*
X89380483Y-48304551D01*
X89332506Y-48355345D01*
X89264684Y-48372138D01*
X89198550Y-48349598D01*
X89159516Y-48304548D01*
X89154626Y-48294952D01*
X89115270Y-48240782D01*
X89115269Y-48240782D01*
X88482962Y-48873090D01*
X88465925Y-48809507D01*
X88400099Y-48695493D01*
X88307007Y-48602401D01*
X88192993Y-48536575D01*
X88129409Y-48519537D01*
X88761716Y-47887228D01*
X88707550Y-47847875D01*
X88697954Y-47842986D01*
X88647157Y-47795012D01*
X88630361Y-47727192D01*
X88651288Y-47663395D01*
X88730027Y-47546081D01*
X88129408Y-46945462D01*
X88192993Y-46928425D01*
X88307007Y-46862599D01*
X88400099Y-46769507D01*
X88465925Y-46655493D01*
X88482962Y-46591908D01*
X89115270Y-47224217D01*
X89115270Y-47224216D01*
X89154622Y-47170054D01*
X89159514Y-47160454D01*
X89207488Y-47109657D01*
X89275308Y-47092861D01*
X89341444Y-47115397D01*
X89380486Y-47160454D01*
X89385375Y-47170050D01*
X89424728Y-47224216D01*
X90057037Y-46591908D01*
X90074075Y-46655493D01*
G37*
%TD.AperFunction*%
%TA.AperFunction,Conductor*%
G36*
X91655270Y-47224217D02*
G01*
X91655270Y-47224216D01*
X91694622Y-47170055D01*
X91699232Y-47161007D01*
X91747205Y-47110209D01*
X91815025Y-47093412D01*
X91881161Y-47115947D01*
X91920204Y-47161004D01*
X91924949Y-47170317D01*
X92052759Y-47346234D01*
X92051888Y-47346866D01*
X92078357Y-47405901D01*
X92079500Y-47422699D01*
X92079500Y-47698542D01*
X92059815Y-47765581D01*
X92020598Y-47804080D01*
X92011344Y-47809787D01*
X91887289Y-47933842D01*
X91795187Y-48083163D01*
X91795186Y-48083166D01*
X91782363Y-48121865D01*
X91771293Y-48155271D01*
X91731520Y-48212715D01*
X91667004Y-48239538D01*
X91656354Y-48239697D01*
X91022962Y-48873090D01*
X91005925Y-48809507D01*
X90940099Y-48695493D01*
X90847007Y-48602401D01*
X90732993Y-48536575D01*
X90669409Y-48519537D01*
X91301716Y-47887228D01*
X91247550Y-47847875D01*
X91237954Y-47842986D01*
X91187157Y-47795012D01*
X91170361Y-47727192D01*
X91192897Y-47661056D01*
X91237954Y-47622014D01*
X91247554Y-47617122D01*
X91301716Y-47577770D01*
X91301717Y-47577770D01*
X90669408Y-46945462D01*
X90732993Y-46928425D01*
X90847007Y-46862599D01*
X90940099Y-46769507D01*
X91005925Y-46655493D01*
X91022962Y-46591908D01*
X91655270Y-47224217D01*
G37*
%TD.AperFunction*%
%TD*%
M02*
